<?xml version="1.0" encoding="utf-8"?>
<!-- Generator: Adobe Illustrator 26.0.2, SVG Export Plug-In . SVG Version: 6.00 Build 0)  -->
<svg version="1.1" id="Layer_1" xmlns="http://www.w3.org/2000/svg" xmlns:xlink="http://www.w3.org/1999/xlink" x="0px" y="0px"
	 viewBox="0 0 512 512" style="enable-background:new 0 0 512 512;" xml:space="preserve">
<style type="text/css">
	.st0{clip-path:url(#SVGID_00000033344157540959866760000017597685514133544373_);}
	.st1{fill:#BA7DF9;}
	.st2{fill:#38BDF8;}
	.st3{fill:#FBBF24;}
</style>
<g>
	<g>
		<defs>
			<rect id="SVGID_1_" width="512" height="512"/>
		</defs>
		<clipPath id="SVGID_00000034812434889259217860000011938761742774071970_">
			<use xlink:href="#SVGID_1_"  style="overflow:visible;"/>
		</clipPath>
		<g style="clip-path:url(#SVGID_00000034812434889259217860000011938761742774071970_);">
			<path class="st1" d="M331,433.5H181c-16.5,0-30-13.5-30-30v-45c0-16.5,13.5-30,30-30h150c16.5,0,30,13.5,30,30v45
				C361,420,347.5,433.5,331,433.5z"/>
			<path class="st2" d="M331,308.5H181c-16.5,0-30-13.5-30-30v-45c0-16.5,13.5-30,30-30h150c16.5,0,30,13.5,30,30v45
				C361,295,347.5,308.5,331,308.5z"/>
			<path class="st3" d="M331,183.5H181c-16.5,0-30-13.5-30-30v-45c0-16.5,13.5-30,30-30h150c16.5,0,30,13.5,30,30v45
				C361,170,347.5,183.5,331,183.5z"/>
		</g>
	</g>
</g>
</svg>
