<?xml version="1.0" encoding="utf-8"?>
<!-- Generator: Adobe Illustrator 26.0.2, SVG Export Plug-In . SVG Version: 6.00 Build 0)  -->
<svg version="1.1" id="Layer_1" xmlns="http://www.w3.org/2000/svg" xmlns:xlink="http://www.w3.org/1999/xlink" x="0px" y="0px"
	 viewBox="0 0 512 512" style="enable-background:new 0 0 512 512;" xml:space="preserve">
<style type="text/css">
	.st0{fill:#FFFFFF;}
	.st1{fill:#BA7DF9;}
	.st2{fill:#38BDF8;}
	.st3{fill:#FBBF24;}
</style>
<rect class="st0" width="512" height="512"/>
<g>
	<path class="st1" d="M323.9,416.6H188.1c-14.9,0-27.1-12.2-27.1-27.1v-40.7c0-14.9,12.2-27.1,27.1-27.1h135.7
		c14.9,0,27.1,12.2,27.1,27.1v40.7C351,404.4,338.8,416.6,323.9,416.6z"/>
	<path class="st2" d="M323.9,303.5H188.1c-14.9,0-27.1-12.2-27.1-27.1v-40.7c0-14.9,12.2-27.1,27.1-27.1h135.7
		c14.9,0,27.1,12.2,27.1,27.1v40.7C351,291.3,338.8,303.5,323.9,303.5z"/>
	<path class="st3" d="M323.9,190.4H188.1c-14.9,0-27.1-12.2-27.1-27.1v-40.7c0-14.9,12.2-27.1,27.1-27.1h135.7
		c14.9,0,27.1,12.2,27.1,27.1v40.7C351,178.2,338.8,190.4,323.9,190.4z"/>
</g>
</svg>
