<?xml version="1.0" encoding="utf-8"?>
<!-- Generator: Adobe Illustrator 26.0.2, SVG Export Plug-In . SVG Version: 6.00 Build 0)  -->
<svg version="1.1" xmlns="http://www.w3.org/2000/svg" xmlns:xlink="http://www.w3.org/1999/xlink" x="0px" y="0px"
	 viewBox="0 0 480 480" style="enable-background:new 0 0 480 480;" xml:space="preserve">
<style type="text/css">
	.st0{fill:#FFFFFF;}
	.st1{display:none;}
	.st2{display:inline;fill:#BA7DF9;}
	.st3{display:inline;fill:#38BDF8;}
	.st4{display:inline;fill:#FBBF24;}
	.st5{display:inline;}
	.st6{fill:#38BDF8;}
	.st7{opacity:0.4;clip-path:url(#SVGID_00000035526383992390148230000010683438982323877305_);fill:#FFFFFF;}
	.st8{fill:none;stroke:#78716C;stroke-width:8;stroke-miterlimit:10;}
	.st9{fill:#78716C;}
	.st10{display:inline;fill:#78716C;stroke:#FFFFFF;stroke-width:8;stroke-miterlimit:10;}
	.st11{fill:#3ADD71;}
	.st12{opacity:0.4;}
	.st13{fill:#BA7DF9;}
	.st14{opacity:0.4;fill:#FFFFFF;}
	.st15{display:inline;fill:#F87171;}
	.st16{display:inline;fill:#A8A29E;}
	.st17{display:inline;fill:#3ADD71;}
	.st18{display:inline;opacity:0.4;}
	.st19{fill:none;stroke:#78716C;stroke-width:40;stroke-miterlimit:10;}
	.st20{clip-path:url(#SVGID_00000141432486445979047690000005330878567668633754_);fill:#38BDF8;}
	.st21{clip-path:url(#SVGID_00000061435766224435473820000007855502151149824441_);fill:#3ADD71;}
	.st22{clip-path:url(#SVGID_00000055690657319468439640000014947537011541230777_);fill:#F87171;}
	.st23{clip-path:url(#SVGID_00000035531659180773758460000014237552945209342598_);fill:#BA7DF9;}
	.st24{clip-path:url(#SVGID_00000170241814910752807310000009601269665379112593_);fill:#FBBF24;}
</style>
<g id="Layer_8">
	<path class="st0" d="M420,480H60c-33.1,0-60-26.9-60-60V60C0,26.9,26.9,0,60,0h360c33.1,0,60,26.9,60,60v360
		C480,453.1,453.1,480,420,480z"/>
</g>
<g id="Layer_1" class="st1">
	<path class="st2" d="M291.3,439.7h-180c-15.5,0-28.1-12.7-28.1-28.1v-61.9c0-15.5,12.7-28.1,28.1-28.1h180
		c15.5,0,28.1,12.7,28.1,28.1v61.9C319.4,427,306.8,439.7,291.3,439.7z"/>
	<path class="st3" d="M274.2,287.8H128.5c-12.5,0-22.8-10.2-22.8-22.8V215c0-12.5,10.2-22.8,22.8-22.8h145.7
		c12.5,0,22.8,10.2,22.8,22.8V265C296.9,277.6,286.7,287.8,274.2,287.8z"/>
	<path class="st4" d="M291.3,158.4h-180c-15.5,0-28.1-12.7-28.1-28.1V68.4c0-15.5,12.7-28.1,28.1-28.1h180
		c15.5,0,28.1,12.7,28.1,28.1v61.9C319.4,145.8,306.8,158.4,291.3,158.4z"/>
	<g class="st5">
		<path class="st6" d="M274.2,287.8H128.5c-12.5,0-22.8-10.2-22.8-22.8V215c0-12.5,10.2-22.8,22.8-22.8h145.7
			c12.5,0,22.8,10.2,22.8,22.8V265C296.9,277.6,286.7,287.8,274.2,287.8z"/>
		<g>
			<defs>
				<path id="SVGID_1_" d="M274.2,287.8H128.5c-12.5,0-22.8-10.2-22.8-22.8V215c0-12.5,10.2-22.8,22.8-22.8h145.7
					c12.5,0,22.8,10.2,22.8,22.8V265C296.9,277.6,286.7,287.8,274.2,287.8z"/>
			</defs>
			<clipPath id="SVGID_00000031186958652672501830000004163735195731634822_">
				<use xlink:href="#SVGID_1_"  style="overflow:visible;"/>
			</clipPath>
			
				<rect x="89.9" y="177" style="opacity:0.4;clip-path:url(#SVGID_00000031186958652672501830000004163735195731634822_);fill:#FFFFFF;" width="222.8" height="55.1"/>
		</g>
		<g>
			<g>
				<path d="M178.5,264.3c-3.3,0-6.2-0.4-8.6-1.2c-2.4-0.8-4.3-1.8-5.9-3.1c-1.5-1.3-2.7-2.6-3.4-4.2c-0.8-1.5-1.2-3-1.2-4.4
					c0-0.4,0.1-0.7,0.4-1c0.3-0.3,0.6-0.4,1-0.4h7.4c0.5,0,0.9,0.1,1.2,0.3c0.3,0.2,0.6,0.6,0.9,1c0.4,1,0.9,1.9,1.8,2.5
					c0.8,0.6,1.8,1.1,2.9,1.3c1.1,0.2,2.3,0.4,3.5,0.4c2.5,0,4.5-0.6,5.9-1.8c1.4-1.2,2.2-2.8,2.2-4.9c0-2.2-0.7-3.7-2-4.7
					c-1.4-0.9-3.3-1.4-5.7-1.4h-7.2c-0.5,0-0.8-0.2-1.1-0.5c-0.3-0.3-0.5-0.7-0.5-1.1v-3.3c0-0.5,0.1-1,0.3-1.4
					c0.2-0.4,0.4-0.6,0.6-0.8l11.6-10.7h-19c-0.5,0-0.9-0.2-1.2-0.5c-0.3-0.3-0.5-0.7-0.5-1.1v-5.4c0-0.5,0.2-0.9,0.5-1.2
					c0.3-0.3,0.7-0.5,1.2-0.5h30c0.5,0,0.9,0.2,1.2,0.5c0.3,0.3,0.5,0.7,0.5,1.2v4.9c0,0.5-0.1,0.9-0.3,1.2
					c-0.2,0.3-0.4,0.6-0.7,0.8l-11,10.9l0.7,0.1c2.7,0.3,5,0.9,7.1,2c2.1,1,3.7,2.5,4.9,4.4c1.2,1.9,1.8,4.3,1.8,7.3
					c0,3.1-0.8,5.7-2.5,7.9c-1.7,2.2-3.9,3.9-6.8,5.1C185.5,263.7,182.2,264.3,178.5,264.3z"/>
				<path d="M223,264.3c-3.2,0-6-0.5-8.3-1.4c-2.3-0.9-4.2-2.2-5.7-3.8c-1.5-1.6-2.6-3.6-3.4-5.7c-0.7-2.2-1.2-4.5-1.3-7
					c0-1.2-0.1-2.6-0.1-4.1c0-1.5,0-3,0-4.6c0-1.5,0.1-2.9,0.1-4.2c0.1-2.5,0.5-4.8,1.3-7c0.8-2.2,1.9-4,3.5-5.7
					c1.5-1.6,3.5-2.9,5.8-3.8c2.3-0.9,5.1-1.4,8.2-1.4c3.1,0,5.9,0.5,8.2,1.4c2.3,0.9,4.2,2.2,5.7,3.8c1.5,1.6,2.7,3.5,3.5,5.7
					c0.8,2.2,1.2,4.5,1.4,7c0,1.3,0.1,2.7,0.1,4.2c0,1.5,0,3,0,4.6c0,1.5-0.1,2.9-0.1,4.1c-0.1,2.5-0.6,4.8-1.3,7
					c-0.8,2.2-1.9,4.1-3.4,5.7c-1.5,1.6-3.4,2.9-5.7,3.8C229,263.8,226.2,264.3,223,264.3z M223,255.5c2.6,0,4.5-0.9,5.7-2.6
					c1.2-1.7,1.9-4,2-7c0-1.3,0.1-2.7,0.1-4.1c0-1.4,0-2.8,0-4.2c0-1.4-0.1-2.7-0.1-3.9c-0.1-2.8-0.7-5.1-2-6.8
					c-1.2-1.8-3.1-2.7-5.7-2.7c-2.7,0-4.6,0.9-5.8,2.7c-1.2,1.8-1.8,4-1.9,6.8c0,1.2-0.1,2.5-0.1,3.9c0,1.4,0,2.8,0,4.2
					c0,1.4,0.1,2.7,0.1,4.1c0.1,2.9,0.7,5.2,2,7C218.5,254.7,220.4,255.5,223,255.5z"/>
			</g>
		</g>
	</g>
	<g class="st5">
		<g>
			<line class="st8" x1="381.3" y1="128.1" x2="381.3" y2="351.9"/>
			<g>
				<polygon class="st9" points="361.4,133.9 381.3,99.4 401.3,133.9 				"/>
			</g>
			<g>
				<polygon class="st9" points="361.4,346.1 381.3,380.6 401.3,346.1 				"/>
			</g>
		</g>
	</g>
	<circle class="st10" cx="381.3" cy="240" r="22.5"/>
</g>
<g id="Layer_2">
	<g>
		<path class="st11" d="M330,439.7H150c-15.5,0-28.1-12.7-28.1-28.1v-61.9c0-15.5,12.7-28.1,28.1-28.1h180
			c15.5,0,28.1,12.7,28.1,28.1v61.9C358.1,427,345.5,439.7,330,439.7z"/>
		<path class="st11" d="M330,299.1H150c-15.5,0-28.1-12.7-28.1-28.1v-61.9c0-15.5,12.7-28.1,28.1-28.1h180
			c15.5,0,28.1,12.7,28.1,28.1v61.9C358.1,286.4,345.5,299.1,330,299.1z"/>
		<path class="st11" d="M330,158.4H150c-15.5,0-28.1-12.7-28.1-28.1V68.4c0-15.5,12.7-28.1,28.1-28.1h180
			c15.5,0,28.1,12.7,28.1,28.1v61.9C358.1,145.8,345.5,158.4,330,158.4z"/>
	</g>
	<g>
		<g class="st12">
			<path d="M176.6,257.5c-0.3,0-0.6-0.1-0.9-0.3c-0.2-0.2-0.3-0.5-0.3-0.9v-30.7c0-0.3,0.1-0.6,0.3-0.9c0.2-0.2,0.5-0.3,0.9-0.3
				h12.9c2.6,0,4.8,0.4,6.6,1.2c1.9,0.8,3.3,2,4.4,3.6c1.1,1.6,1.6,3.6,1.6,5.9c0,2.4-0.5,4.4-1.6,5.9c-1.1,1.6-2.5,2.7-4.4,3.5
				c-1.9,0.8-4.1,1.1-6.6,1.1h-6.3v10.7c0,0.3-0.1,0.6-0.3,0.9c-0.2,0.2-0.5,0.3-0.9,0.3H176.6z M183,239.8h6.2
				c1.6,0,2.9-0.4,3.8-1.2c0.9-0.8,1.3-2,1.3-3.5c0-1.4-0.4-2.5-1.2-3.4c-0.8-0.9-2.1-1.3-3.9-1.3H183V239.8z"/>
			<path d="M220.4,258c-2.8,0-5.2-0.5-7.3-1.4c-2.1-0.9-3.7-2.4-4.8-4.3c-1.1-1.9-1.7-4.4-1.7-7.4v-19.3c0-0.3,0.1-0.6,0.3-0.9
				c0.2-0.2,0.5-0.3,0.9-0.3h5.2c0.3,0,0.6,0.1,0.9,0.3c0.2,0.2,0.3,0.5,0.3,0.9v19.2c0,2.3,0.6,4.1,1.7,5.2
				c1.1,1.1,2.6,1.7,4.6,1.7c2,0,3.5-0.6,4.6-1.7c1.1-1.1,1.7-2.9,1.7-5.2v-19.2c0-0.3,0.1-0.6,0.4-0.9c0.2-0.2,0.5-0.3,0.8-0.3h5.2
				c0.3,0,0.6,0.1,0.8,0.3c0.2,0.2,0.3,0.5,0.3,0.9v19.3c0,3-0.6,5.5-1.7,7.4c-1.1,1.9-2.7,3.4-4.8,4.3
				C225.6,257.5,223.2,258,220.4,258z"/>
			<path d="M242.1,257.5c-0.3,0-0.6-0.1-0.9-0.3c-0.2-0.2-0.3-0.5-0.3-0.9v-30.7c0-0.3,0.1-0.6,0.3-0.9c0.2-0.2,0.5-0.3,0.9-0.3
				h21.1c0.3,0,0.6,0.1,0.9,0.3c0.2,0.2,0.3,0.5,0.3,0.9v4c0,0.3-0.1,0.6-0.3,0.9c-0.2,0.2-0.5,0.3-0.9,0.3h-14.9v8h13.9
				c0.3,0,0.6,0.1,0.9,0.3c0.2,0.2,0.3,0.5,0.3,0.9v4c0,0.3-0.1,0.6-0.3,0.8c-0.2,0.2-0.5,0.3-0.9,0.3h-13.9v11.2
				c0,0.3-0.1,0.6-0.3,0.9c-0.2,0.2-0.5,0.3-0.9,0.3H242.1z"/>
			<path d="M270.8,257.5c-0.3,0-0.6-0.1-0.9-0.3c-0.2-0.2-0.3-0.5-0.3-0.9v-30.7c0-0.3,0.1-0.6,0.3-0.9c0.2-0.2,0.5-0.3,0.9-0.3
				h21.1c0.3,0,0.6,0.1,0.9,0.3c0.2,0.2,0.3,0.5,0.3,0.9v4c0,0.3-0.1,0.6-0.3,0.9c-0.2,0.2-0.5,0.3-0.9,0.3H277v8H291
				c0.3,0,0.6,0.1,0.9,0.3c0.2,0.2,0.3,0.5,0.3,0.9v4c0,0.3-0.1,0.6-0.3,0.8c-0.2,0.2-0.5,0.3-0.9,0.3H277v11.2
				c0,0.3-0.1,0.6-0.3,0.9c-0.2,0.2-0.5,0.3-0.9,0.3H270.8z"/>
			<path d="M298.9,257.5c-0.3,0-0.6-0.1-0.8-0.3c-0.2-0.2-0.3-0.5-0.3-0.9v-5.1c0-0.3,0.1-0.6,0.3-0.9c0.2-0.2,0.5-0.3,0.8-0.3h5.1
				c0.3,0,0.6,0.1,0.9,0.3c0.2,0.2,0.3,0.5,0.3,0.9v5.1c0,0.3-0.1,0.6-0.3,0.9c-0.2,0.2-0.5,0.3-0.9,0.3H298.9z M299.2,247.7
				c-0.3,0-0.6-0.1-0.9-0.3c-0.2-0.2-0.3-0.5-0.3-0.9v-20.9c0-0.3,0.1-0.6,0.3-0.9c0.2-0.2,0.5-0.3,0.9-0.3h4.6
				c0.3,0,0.6,0.1,0.9,0.3c0.2,0.2,0.3,0.5,0.3,0.9v20.9c0,0.3-0.1,0.6-0.3,0.9c-0.2,0.2-0.5,0.3-0.9,0.3H299.2z"/>
		</g>
	</g>
	<g>
		<g class="st12">
			<path d="M176.6,398.1c-0.3,0-0.6-0.1-0.9-0.3c-0.2-0.2-0.3-0.5-0.3-0.9v-30.7c0-0.3,0.1-0.6,0.3-0.9c0.2-0.2,0.5-0.3,0.9-0.3
				h12.9c2.6,0,4.8,0.4,6.6,1.2c1.9,0.8,3.3,2,4.4,3.6c1.1,1.6,1.6,3.6,1.6,5.9c0,2.4-0.5,4.4-1.6,5.9c-1.1,1.6-2.5,2.7-4.4,3.5
				c-1.9,0.8-4.1,1.1-6.6,1.1h-6.3v10.7c0,0.3-0.1,0.6-0.3,0.9c-0.2,0.2-0.5,0.3-0.9,0.3H176.6z M183,380.4h6.2
				c1.6,0,2.9-0.4,3.8-1.2c0.9-0.8,1.3-2,1.3-3.5c0-1.4-0.4-2.5-1.2-3.4s-2.1-1.3-3.9-1.3H183V380.4z"/>
			<path d="M220.4,398.6c-2.8,0-5.2-0.5-7.3-1.4c-2.1-0.9-3.7-2.4-4.8-4.3c-1.1-1.9-1.7-4.4-1.7-7.4v-19.3c0-0.3,0.1-0.6,0.3-0.9
				c0.2-0.2,0.5-0.3,0.9-0.3h5.2c0.3,0,0.6,0.1,0.9,0.3c0.2,0.2,0.3,0.5,0.3,0.9v19.2c0,2.3,0.6,4.1,1.7,5.2
				c1.1,1.1,2.6,1.7,4.6,1.7c2,0,3.5-0.6,4.6-1.7c1.1-1.1,1.7-2.9,1.7-5.2v-19.2c0-0.3,0.1-0.6,0.4-0.9c0.2-0.2,0.5-0.3,0.8-0.3h5.2
				c0.3,0,0.6,0.1,0.8,0.3c0.2,0.2,0.3,0.5,0.3,0.9v19.3c0,3-0.6,5.5-1.7,7.4c-1.1,1.9-2.7,3.4-4.8,4.3
				C225.6,398.1,223.2,398.6,220.4,398.6z"/>
			<path d="M242.1,398.1c-0.3,0-0.6-0.1-0.9-0.3c-0.2-0.2-0.3-0.5-0.3-0.9v-30.7c0-0.3,0.1-0.6,0.3-0.9c0.2-0.2,0.5-0.3,0.9-0.3
				h21.1c0.3,0,0.6,0.1,0.9,0.3c0.2,0.2,0.3,0.5,0.3,0.9v4c0,0.3-0.1,0.6-0.3,0.9c-0.2,0.2-0.5,0.3-0.9,0.3h-14.9v8h13.9
				c0.3,0,0.6,0.1,0.9,0.3c0.2,0.2,0.3,0.5,0.3,0.9v4c0,0.3-0.1,0.6-0.3,0.8c-0.2,0.2-0.5,0.3-0.9,0.3h-13.9v11.2
				c0,0.3-0.1,0.6-0.3,0.9c-0.2,0.2-0.5,0.3-0.9,0.3H242.1z"/>
			<path d="M270.8,398.1c-0.3,0-0.6-0.1-0.9-0.3c-0.2-0.2-0.3-0.5-0.3-0.9v-30.7c0-0.3,0.1-0.6,0.3-0.9c0.2-0.2,0.5-0.3,0.9-0.3
				h21.1c0.3,0,0.6,0.1,0.9,0.3c0.2,0.2,0.3,0.5,0.3,0.9v4c0,0.3-0.1,0.6-0.3,0.9c-0.2,0.2-0.5,0.3-0.9,0.3H277v8H291
				c0.3,0,0.6,0.1,0.9,0.3c0.2,0.2,0.3,0.5,0.3,0.9v4c0,0.3-0.1,0.6-0.3,0.8c-0.2,0.2-0.5,0.3-0.9,0.3H277v11.2
				c0,0.3-0.1,0.6-0.3,0.9c-0.2,0.2-0.5,0.3-0.9,0.3H270.8z"/>
			<path d="M298.9,398.1c-0.3,0-0.6-0.1-0.8-0.3c-0.2-0.2-0.3-0.5-0.3-0.9v-5.1c0-0.3,0.1-0.6,0.3-0.9c0.2-0.2,0.5-0.3,0.8-0.3h5.1
				c0.3,0,0.6,0.1,0.9,0.3c0.2,0.2,0.3,0.5,0.3,0.9v5.1c0,0.3-0.1,0.6-0.3,0.9c-0.2,0.2-0.5,0.3-0.9,0.3H298.9z M299.2,388.3
				c-0.3,0-0.6-0.1-0.9-0.3c-0.2-0.2-0.3-0.5-0.3-0.9v-20.9c0-0.3,0.1-0.6,0.3-0.9c0.2-0.2,0.5-0.3,0.9-0.3h4.6
				c0.3,0,0.6,0.1,0.9,0.3c0.2,0.2,0.3,0.5,0.3,0.9v20.9c0,0.3-0.1,0.6-0.3,0.9c-0.2,0.2-0.5,0.3-0.9,0.3H299.2z"/>
		</g>
	</g>
	<g>
		<g class="st12">
			<path d="M176.6,116.9c-0.3,0-0.6-0.1-0.9-0.3c-0.2-0.2-0.3-0.5-0.3-0.9V85c0-0.3,0.1-0.6,0.3-0.9c0.2-0.2,0.5-0.3,0.9-0.3h12.9
				c2.6,0,4.8,0.4,6.6,1.2c1.9,0.8,3.3,2,4.4,3.6c1.1,1.6,1.6,3.6,1.6,5.9c0,2.4-0.5,4.4-1.6,5.9c-1.1,1.6-2.5,2.7-4.4,3.5
				c-1.9,0.8-4.1,1.1-6.6,1.1h-6.3v10.7c0,0.3-0.1,0.6-0.3,0.9c-0.2,0.2-0.5,0.3-0.9,0.3H176.6z M183,99.1h6.2
				c1.6,0,2.9-0.4,3.8-1.2c0.9-0.8,1.3-2,1.3-3.5c0-1.4-0.4-2.5-1.2-3.4c-0.8-0.9-2.1-1.3-3.9-1.3H183V99.1z"/>
			<path d="M220.4,117.3c-2.8,0-5.2-0.5-7.3-1.4s-3.7-2.4-4.8-4.3c-1.1-1.9-1.7-4.4-1.7-7.4V85c0-0.3,0.1-0.6,0.3-0.9
				c0.2-0.2,0.5-0.3,0.9-0.3h5.2c0.3,0,0.6,0.1,0.9,0.3c0.2,0.2,0.3,0.5,0.3,0.9v19.2c0,2.3,0.6,4.1,1.7,5.2
				c1.1,1.1,2.6,1.7,4.6,1.7c2,0,3.5-0.6,4.6-1.7c1.1-1.1,1.7-2.9,1.7-5.2V85c0-0.3,0.1-0.6,0.4-0.9c0.2-0.2,0.5-0.3,0.8-0.3h5.2
				c0.3,0,0.6,0.1,0.8,0.3c0.2,0.2,0.3,0.5,0.3,0.9v19.3c0,3-0.6,5.5-1.7,7.4c-1.1,1.9-2.7,3.4-4.8,4.3
				C225.6,116.9,223.2,117.3,220.4,117.3z"/>
			<path d="M242.1,116.9c-0.3,0-0.6-0.1-0.9-0.3c-0.2-0.2-0.3-0.5-0.3-0.9V85c0-0.3,0.1-0.6,0.3-0.9c0.2-0.2,0.5-0.3,0.9-0.3h21.1
				c0.3,0,0.6,0.1,0.9,0.3c0.2,0.2,0.3,0.5,0.3,0.9v4c0,0.3-0.1,0.6-0.3,0.9c-0.2,0.2-0.5,0.3-0.9,0.3h-14.9v8h13.9
				c0.3,0,0.6,0.1,0.9,0.3c0.2,0.2,0.3,0.5,0.3,0.9v4c0,0.3-0.1,0.6-0.3,0.8c-0.2,0.2-0.5,0.3-0.9,0.3h-13.9v11.2
				c0,0.3-0.1,0.6-0.3,0.9c-0.2,0.2-0.5,0.3-0.9,0.3H242.1z"/>
			<path d="M270.8,116.9c-0.3,0-0.6-0.1-0.9-0.3c-0.2-0.2-0.3-0.5-0.3-0.9V85c0-0.3,0.1-0.6,0.3-0.9c0.2-0.2,0.5-0.3,0.9-0.3h21.1
				c0.3,0,0.6,0.1,0.9,0.3c0.2,0.2,0.3,0.5,0.3,0.9v4c0,0.3-0.1,0.6-0.3,0.9c-0.2,0.2-0.5,0.3-0.9,0.3H277v8H291
				c0.3,0,0.6,0.1,0.9,0.3c0.2,0.2,0.3,0.5,0.3,0.9v4c0,0.3-0.1,0.6-0.3,0.8c-0.2,0.2-0.5,0.3-0.9,0.3H277v11.2
				c0,0.3-0.1,0.6-0.3,0.9c-0.2,0.2-0.5,0.3-0.9,0.3H270.8z"/>
			<path d="M298.9,116.9c-0.3,0-0.6-0.1-0.8-0.3c-0.2-0.2-0.3-0.5-0.3-0.9v-5.1c0-0.3,0.1-0.6,0.3-0.9c0.2-0.2,0.5-0.3,0.8-0.3h5.1
				c0.3,0,0.6,0.1,0.9,0.3c0.2,0.2,0.3,0.5,0.3,0.9v5.1c0,0.3-0.1,0.6-0.3,0.9c-0.2,0.2-0.5,0.3-0.9,0.3H298.9z M299.2,107.1
				c-0.3,0-0.6-0.1-0.9-0.3c-0.2-0.2-0.3-0.5-0.3-0.9V85c0-0.3,0.1-0.6,0.3-0.9c0.2-0.2,0.5-0.3,0.9-0.3h4.6c0.3,0,0.6,0.1,0.9,0.3
				c0.2,0.2,0.3,0.5,0.3,0.9v20.9c0,0.3-0.1,0.6-0.3,0.9c-0.2,0.2-0.5,0.3-0.9,0.3H299.2z"/>
		</g>
	</g>
</g>
<g id="Layer_3" class="st1">
	<g class="st5">
		<path class="st13" d="M373.3,327.5H106.7c-22.9,0-41.7-18.8-41.7-41.7v-91.7c0-22.9,18.8-41.7,41.7-41.7h266.7
			c22.9,0,41.7,18.8,41.7,41.7v91.7C415,308.8,396.2,327.5,373.3,327.5z"/>
		<rect x="54" y="152.5" class="st14" width="374" height="124.4"/>
		<g>
			<g class="st12">
				<path d="M145.2,266.6c-4.5,0-8.2-0.7-11.2-2c-3-1.3-5.3-3-6.8-5.1c-1.5-2.1-2.4-4.3-2.4-6.7c0-0.4,0.1-0.7,0.4-1
					c0.3-0.3,0.6-0.5,1-0.5h7.5c0.6,0,1.1,0.1,1.4,0.4c0.3,0.3,0.6,0.6,0.9,0.9c0.3,0.8,0.9,1.6,1.6,2.3c0.7,0.7,1.7,1.4,3,1.9
					c1.3,0.5,2.8,0.7,4.7,0.7c3,0,5.3-0.5,6.8-1.5c1.5-1,2.3-2.3,2.3-4c0-1.2-0.4-2.2-1.2-2.9c-0.8-0.7-2.1-1.4-3.8-2s-4.1-1.3-7-2
					c-3.5-0.7-6.5-1.7-8.9-2.9c-2.5-1.2-4.3-2.7-5.5-4.6c-1.2-1.9-1.9-4.2-1.9-7c0-2.8,0.8-5.3,2.3-7.5s3.7-3.9,6.5-5.1
					c2.8-1.2,6.1-1.9,10-1.9c3.1,0,5.9,0.4,8.3,1.3c2.4,0.8,4.4,1.9,6,3.3c1.6,1.4,2.8,2.8,3.7,4.3c0.8,1.5,1.3,3,1.3,4.5
					c0,0.4-0.1,0.7-0.4,1c-0.3,0.3-0.6,0.5-1,0.5h-7.8c-0.5,0-0.9-0.1-1.3-0.3c-0.4-0.2-0.7-0.5-0.9-1c-0.3-1.2-1.1-2.3-2.5-3.2
					c-1.4-0.9-3.2-1.4-5.4-1.4c-2.3,0-4.1,0.4-5.4,1.3c-1.3,0.8-2,2.1-2,3.9c0,1.1,0.3,2.1,1,2.8c0.7,0.8,1.8,1.4,3.4,2
					c1.6,0.6,3.7,1.2,6.4,1.9c4.1,0.8,7.4,1.8,10,3c2.6,1.2,4.5,2.7,5.7,4.5c1.2,1.8,1.8,4.2,1.8,7c0,3.1-0.9,5.8-2.6,8
					s-4.2,4-7.2,5.1C152.8,266,149.3,266.6,145.2,266.6z"/>
				<path d="M192.7,266.6c-4.4,0-8.1-0.7-11.2-2.2c-3.1-1.5-5.4-3.6-7.1-6.4c-1.7-2.8-2.6-6.3-2.8-10.3c0-1.9-0.1-4-0.1-6.2
					c0-2.2,0-4.3,0.1-6.3c0.2-4,1.1-7.4,2.8-10.3c1.7-2.8,4.1-5,7.2-6.5c3.1-1.5,6.8-2.2,11.1-2.2c3.1,0,6,0.4,8.5,1.2
					c2.6,0.8,4.8,1.9,6.6,3.4c1.9,1.5,3.3,3.2,4.3,5.2c1,2,1.6,4.2,1.7,6.7c0,0.4-0.2,0.8-0.5,1c-0.3,0.3-0.7,0.4-1.1,0.4h-8
					c-0.6,0-1-0.1-1.3-0.4c-0.3-0.3-0.6-0.7-0.8-1.4c-0.7-2.8-1.9-4.6-3.5-5.7c-1.6-1-3.7-1.5-6.1-1.5c-2.9,0-5.2,0.8-6.9,2.4
					c-1.7,1.6-2.6,4.2-2.7,7.9c-0.1,3.8-0.1,7.7,0,11.8c0.1,3.7,1.1,6.3,2.7,7.9c1.7,1.6,4,2.4,6.9,2.4c2.4,0,4.5-0.5,6.1-1.6
					c1.7-1,2.8-2.9,3.5-5.6c0.2-0.7,0.4-1.2,0.8-1.4c0.3-0.3,0.8-0.4,1.3-0.4h8c0.4,0,0.8,0.1,1.1,0.4c0.3,0.3,0.5,0.6,0.5,1
					c-0.1,2.5-0.7,4.7-1.7,6.7c-1,2-2.5,3.8-4.3,5.2c-1.9,1.5-4.1,2.6-6.6,3.4C198.7,266.2,195.8,266.6,192.7,266.6z"/>
				<path d="M241.2,266.6c-4.2,0-7.9-0.7-11-2.1s-5.5-3.5-7.2-6.3c-1.7-2.8-2.7-6.4-2.8-10.7c0-2-0.1-4-0.1-6c0-2,0-4,0.1-6.1
					c0.1-4.2,1.1-7.7,2.8-10.6c1.8-2.9,4.2-5,7.3-6.5c3.1-1.4,6.7-2.2,10.9-2.2c4.1,0,7.7,0.7,10.8,2.2c3.1,1.4,5.5,3.6,7.3,6.5
					c1.8,2.9,2.7,6.4,2.8,10.6c0.1,2.1,0.1,4.1,0.1,6.1c0,2,0,4-0.1,6c-0.1,4.3-1.1,7.9-2.8,10.7s-4.1,4.9-7.2,6.3
					C249,265.9,245.4,266.6,241.2,266.6z M241.2,257.6c2.7,0,4.9-0.8,6.7-2.5c1.8-1.7,2.7-4.3,2.8-7.9c0.1-2.1,0.1-4,0.1-5.8
					c0-1.8,0-3.7-0.1-5.7c0-2.4-0.5-4.4-1.3-5.9s-1.9-2.7-3.3-3.4c-1.4-0.7-3-1.1-4.8-1.1c-1.8,0-3.4,0.4-4.8,1.1
					c-1.4,0.7-2.5,1.9-3.3,3.4c-0.8,1.5-1.3,3.5-1.4,5.9c0,2-0.1,3.9-0.1,5.7c0,1.8,0,3.7,0.1,5.8c0.1,3.6,1.1,6.3,2.8,7.9
					C236.2,256.8,238.4,257.6,241.2,257.6z"/>
				<path d="M272.7,265.9c-0.5,0-0.9-0.2-1.3-0.5c-0.3-0.3-0.5-0.7-0.5-1.3v-45.5c0-0.5,0.2-0.9,0.5-1.3c0.3-0.3,0.7-0.5,1.3-0.5
					h18.6c5.8,0,10.4,1.3,13.8,4c3.4,2.7,5,6.5,5,11.6c0,3.4-0.8,6.3-2.4,8.5c-1.6,2.3-3.8,4-6.6,5.1l9.9,17.5
					c0.1,0.3,0.2,0.5,0.2,0.8c0,0.4-0.1,0.7-0.4,1c-0.3,0.3-0.6,0.5-1.1,0.5h-7.8c-0.8,0-1.5-0.2-1.9-0.7c-0.4-0.4-0.7-0.9-0.9-1.2
					l-8.5-16h-8.5v16.2c0,0.5-0.2,0.9-0.5,1.3c-0.3,0.3-0.7,0.5-1.3,0.5H272.7z M282.1,239.1h9c2.6,0,4.5-0.6,5.7-1.8
					c1.2-1.2,1.9-2.8,1.9-4.9s-0.6-3.8-1.8-5c-1.2-1.2-3.1-1.8-5.7-1.8h-9V239.1z"/>
				<path d="M320.4,265.9c-0.5,0-0.9-0.2-1.3-0.5c-0.3-0.3-0.5-0.7-0.5-1.3v-45.5c0-0.5,0.2-0.9,0.5-1.3c0.3-0.3,0.7-0.5,1.3-0.5
					h31.7c0.5,0,0.9,0.2,1.3,0.5c0.3,0.3,0.5,0.7,0.5,1.3v5.6c0,0.5-0.2,0.9-0.5,1.2c-0.3,0.3-0.7,0.5-1.3,0.5h-22.7v11h21.1
					c0.5,0,0.9,0.2,1.3,0.5c0.3,0.3,0.5,0.7,0.5,1.3v5.2c0,0.5-0.2,0.9-0.5,1.2c-0.3,0.3-0.7,0.5-1.3,0.5h-21.1v11.3h23.2
					c0.5,0,0.9,0.2,1.3,0.5c0.3,0.3,0.5,0.7,0.5,1.3v5.5c0,0.5-0.2,0.9-0.5,1.3c-0.3,0.3-0.7,0.5-1.3,0.5H320.4z"/>
			</g>
		</g>
	</g>
	<path class="st4" d="M400,87.5H80c-27.5,0-50-22.5-50-50v-110c0-27.5,22.5-50,50-50h320c27.5,0,50,22.5,50,50v110
		C450,65,427.5,87.5,400,87.5z"/>
	<path class="st15" d="M400,602.5H80c-27.5,0-50-22.5-50-50v-110c0-27.5,22.5-50,50-50h320c27.5,0,50,22.5,50,50v110
		C450,580,427.5,602.5,400,602.5z"/>
</g>
<g id="Layer_5" class="st1">
	<path class="st3" d="M139.5,81.3h-99c-8.5,0-15.5-7-15.5-15.5v-34c0-8.5,7-15.5,15.5-15.5h99c8.5,0,15.5,7,15.5,15.5v34
		C155,74.4,148,81.3,139.5,81.3z"/>
	<path class="st16" d="M139.5,157.8h-99c-8.5,0-15.5-7-15.5-15.5v-34c0-8.5,7-15.5,15.5-15.5h99c8.5,0,15.5,7,15.5,15.5v34
		C155,150.8,148,157.8,139.5,157.8z"/>
	<path class="st16" d="M139.5,234.3h-99c-8.5,0-15.5-7-15.5-15.5v-34c0-8.5,7-15.5,15.5-15.5h99c8.5,0,15.5,7,15.5,15.5v34
		C155,227.3,148,234.3,139.5,234.3z"/>
	<path class="st16" d="M139.5,310.7h-99c-8.5,0-15.5-7-15.5-15.5v-34c0-8.5,7-15.5,15.5-15.5h99c8.5,0,15.5,7,15.5,15.5v34
		C155,303.8,148,310.7,139.5,310.7z"/>
	<path class="st3" d="M139.5,387.2h-99c-8.5,0-15.5-7-15.5-15.5v-34c0-8.5,7-15.5,15.5-15.5h99c8.5,0,15.5,7,15.5,15.5v34
		C155,380.2,148,387.2,139.5,387.2z"/>
	<path class="st3" d="M139.5,463.7h-99c-8.5,0-15.5-7-15.5-15.5v-34c0-8.5,7-15.5,15.5-15.5h99c8.5,0,15.5,7,15.5,15.5v34
		C155,456.7,148,463.7,139.5,463.7z"/>
	<g class="st5">
		<g>
			<path d="M76.5,138.2c-0.3,0-0.6-0.1-0.8-0.3c-0.2-0.2-0.3-0.4-0.3-0.8v-7.9h-7.8c-0.3,0-0.6-0.1-0.8-0.3
				c-0.2-0.2-0.3-0.4-0.3-0.7v-2.6c0-0.3,0.1-0.6,0.3-0.8c0.2-0.2,0.4-0.3,0.8-0.3h7.8v-7.7c0-0.3,0.1-0.6,0.3-0.8
				c0.2-0.2,0.4-0.3,0.8-0.3h2.9c0.3,0,0.6,0.1,0.8,0.3c0.2,0.2,0.3,0.4,0.3,0.8v7.7h7.8c0.3,0,0.5,0.1,0.7,0.3
				c0.2,0.2,0.3,0.4,0.3,0.8v2.6c0,0.3-0.1,0.5-0.3,0.7c-0.2,0.2-0.4,0.3-0.7,0.3h-7.8v7.9c0,0.3-0.1,0.6-0.3,0.8
				c-0.2,0.2-0.4,0.3-0.8,0.3H76.5z"/>
			<path d="M102.4,139.6c-0.3,0-0.5-0.1-0.7-0.3c-0.2-0.2-0.3-0.4-0.3-0.8v-20.9l-6,4.7c-0.3,0.2-0.5,0.3-0.8,0.2s-0.5-0.2-0.7-0.5
				l-2.1-2.7c-0.2-0.3-0.2-0.5-0.2-0.8c0-0.3,0.2-0.5,0.4-0.7l9.6-7.4c0.2-0.1,0.3-0.2,0.5-0.2c0.2,0,0.3-0.1,0.5-0.1h4.5
				c0.3,0,0.5,0.1,0.7,0.3c0.2,0.2,0.3,0.4,0.3,0.8v27.3c0,0.3-0.1,0.6-0.3,0.8c-0.2,0.2-0.4,0.3-0.7,0.3H102.4z"/>
		</g>
	</g>
	<g class="st5">
		<g>
			<path d="M76.5,214.7c-0.3,0-0.6-0.1-0.8-0.3c-0.2-0.2-0.3-0.4-0.3-0.8v-7.9h-7.8c-0.3,0-0.6-0.1-0.8-0.3
				c-0.2-0.2-0.3-0.4-0.3-0.7V202c0-0.3,0.1-0.6,0.3-0.8c0.2-0.2,0.4-0.3,0.8-0.3h7.8v-7.7c0-0.3,0.1-0.6,0.3-0.8
				c0.2-0.2,0.4-0.3,0.8-0.3h2.9c0.3,0,0.6,0.1,0.8,0.3c0.2,0.2,0.3,0.4,0.3,0.8v7.7h7.8c0.3,0,0.5,0.1,0.7,0.3
				c0.2,0.2,0.3,0.4,0.3,0.8v2.6c0,0.3-0.1,0.5-0.3,0.7c-0.2,0.2-0.4,0.3-0.7,0.3h-7.8v7.9c0,0.3-0.1,0.6-0.3,0.8
				c-0.2,0.2-0.4,0.3-0.8,0.3H76.5z"/>
			<path d="M102.4,216.1c-0.3,0-0.5-0.1-0.7-0.3c-0.2-0.2-0.3-0.4-0.3-0.8v-20.9l-6,4.7c-0.3,0.2-0.5,0.3-0.8,0.2s-0.5-0.2-0.7-0.5
				l-2.1-2.7c-0.2-0.3-0.2-0.5-0.2-0.8c0-0.3,0.2-0.5,0.4-0.7l9.6-7.4c0.2-0.1,0.3-0.2,0.5-0.2c0.2,0,0.3-0.1,0.5-0.1h4.5
				c0.3,0,0.5,0.1,0.7,0.3c0.2,0.2,0.3,0.4,0.3,0.8V215c0,0.3-0.1,0.6-0.3,0.8c-0.2,0.2-0.4,0.3-0.7,0.3H102.4z"/>
		</g>
	</g>
	<g class="st5">
		<g>
			<path d="M76.5,291.2c-0.3,0-0.6-0.1-0.8-0.3c-0.2-0.2-0.3-0.4-0.3-0.8v-7.9h-7.8c-0.3,0-0.6-0.1-0.8-0.3
				c-0.2-0.2-0.3-0.4-0.3-0.7v-2.6c0-0.3,0.1-0.6,0.3-0.8c0.2-0.2,0.4-0.3,0.8-0.3h7.8v-7.7c0-0.3,0.1-0.6,0.3-0.8
				c0.2-0.2,0.4-0.3,0.8-0.3h2.9c0.3,0,0.6,0.1,0.8,0.3c0.2,0.2,0.3,0.4,0.3,0.8v7.7h7.8c0.3,0,0.5,0.1,0.7,0.3
				c0.2,0.2,0.3,0.4,0.3,0.8v2.6c0,0.3-0.1,0.5-0.3,0.7c-0.2,0.2-0.4,0.3-0.7,0.3h-7.8v7.9c0,0.3-0.1,0.6-0.3,0.8
				c-0.2,0.2-0.4,0.3-0.8,0.3H76.5z"/>
			<path d="M102.4,292.5c-0.3,0-0.5-0.1-0.7-0.3c-0.2-0.2-0.3-0.4-0.3-0.8v-20.9l-6,4.7c-0.3,0.2-0.5,0.3-0.8,0.2
				c-0.3-0.1-0.5-0.2-0.7-0.5l-2.1-2.7c-0.2-0.3-0.2-0.5-0.2-0.8c0-0.3,0.2-0.5,0.4-0.7l9.6-7.4c0.2-0.1,0.3-0.2,0.5-0.2
				c0.2,0,0.3-0.1,0.5-0.1h4.5c0.3,0,0.5,0.1,0.7,0.3s0.3,0.4,0.3,0.8v27.3c0,0.3-0.1,0.6-0.3,0.8c-0.2,0.2-0.4,0.3-0.7,0.3H102.4z"
				/>
		</g>
	</g>
	<path class="st3" d="M439.5,194.8h-99c-8.5,0-15.5-7-15.5-15.5v-34c0-8.5,7-15.5,15.5-15.5h99c8.5,0,15.5,7,15.5,15.5v34
		C455,187.8,448,194.8,439.5,194.8z"/>
	<path class="st3" d="M439.5,271.3h-99c-8.5,0-15.5-7-15.5-15.5v-34c0-8.5,7-15.5,15.5-15.5h99c8.5,0,15.5,7,15.5,15.5v34
		C455,264.3,448,271.3,439.5,271.3z"/>
	<path class="st3" d="M439.5,347.7h-99c-8.5,0-15.5-7-15.5-15.5v-34c0-8.5,7-15.5,15.5-15.5h99c8.5,0,15.5,7,15.5,15.5v34
		C455,340.8,448,347.7,439.5,347.7z"/>
	<g class="st5">
		<g>
			<path d="M373.2,175.2c-0.3,0-0.6-0.1-0.8-0.3c-0.2-0.2-0.3-0.4-0.3-0.8v-7.9h-7.8c-0.3,0-0.6-0.1-0.8-0.3
				c-0.2-0.2-0.3-0.4-0.3-0.7v-2.6c0-0.3,0.1-0.6,0.3-0.8c0.2-0.2,0.4-0.3,0.8-0.3h7.8v-7.7c0-0.3,0.1-0.6,0.3-0.8
				c0.2-0.2,0.4-0.3,0.8-0.3h2.9c0.3,0,0.6,0.1,0.8,0.3c0.2,0.2,0.3,0.4,0.3,0.8v7.7h7.8c0.3,0,0.5,0.1,0.7,0.3
				c0.2,0.2,0.3,0.4,0.3,0.8v2.6c0,0.3-0.1,0.5-0.3,0.7c-0.2,0.2-0.4,0.3-0.7,0.3h-7.8v7.9c0,0.3-0.1,0.6-0.3,0.8
				c-0.2,0.2-0.4,0.3-0.8,0.3H373.2z"/>
			<path d="M390.4,176.6c-0.3,0-0.6-0.1-0.8-0.3c-0.2-0.2-0.3-0.4-0.3-0.8V173c0-0.2,0.1-0.5,0.2-0.9c0.1-0.4,0.4-0.7,0.9-1.1
				l5.5-5.5c2-1.6,3.7-2.9,5-4c1.3-1.1,2.2-2.1,2.8-3c0.6-0.9,0.9-1.8,0.9-2.6c0-1.1-0.3-2-0.9-2.7c-0.6-0.7-1.6-1.1-2.9-1.1
				c-0.9,0-1.6,0.2-2.2,0.6c-0.6,0.4-1.1,0.9-1.4,1.5c-0.3,0.6-0.6,1.3-0.7,2c-0.1,0.4-0.3,0.6-0.5,0.8c-0.3,0.1-0.5,0.2-0.8,0.2
				h-4.5c-0.3,0-0.5-0.1-0.7-0.3s-0.3-0.4-0.3-0.6c0-1.3,0.3-2.5,0.8-3.7c0.5-1.1,1.3-2.2,2.2-3.1c1-0.9,2.1-1.6,3.4-2.1
				c1.3-0.5,2.9-0.8,4.6-0.8c2.4,0,4.3,0.4,5.9,1.2c1.6,0.8,2.8,1.8,3.6,3.2c0.8,1.3,1.2,2.9,1.2,4.7c0,1.3-0.3,2.6-0.8,3.7
				c-0.5,1.1-1.3,2.2-2.4,3.3c-1,1-2.3,2.1-3.7,3.3l-5,5h11.4c0.3,0,0.6,0.1,0.8,0.3c0.2,0.2,0.3,0.4,0.3,0.8v3.6
				c0,0.3-0.1,0.6-0.3,0.8c-0.2,0.2-0.4,0.3-0.8,0.3H390.4z"/>
		</g>
	</g>
	<g class="st5">
		<g>
			<path d="M373.2,251.7c-0.3,0-0.6-0.1-0.8-0.3c-0.2-0.2-0.3-0.4-0.3-0.8v-7.9h-7.8c-0.3,0-0.6-0.1-0.8-0.3
				c-0.2-0.2-0.3-0.4-0.3-0.7V239c0-0.3,0.1-0.6,0.3-0.8c0.2-0.2,0.4-0.3,0.8-0.3h7.8v-7.7c0-0.3,0.1-0.6,0.3-0.8
				c0.2-0.2,0.4-0.3,0.8-0.3h2.9c0.3,0,0.6,0.1,0.8,0.3c0.2,0.2,0.3,0.4,0.3,0.8v7.7h7.8c0.3,0,0.5,0.1,0.7,0.3
				c0.2,0.2,0.3,0.4,0.3,0.8v2.6c0,0.3-0.1,0.5-0.3,0.7c-0.2,0.2-0.4,0.3-0.7,0.3h-7.8v7.9c0,0.3-0.1,0.6-0.3,0.8
				c-0.2,0.2-0.4,0.3-0.8,0.3H373.2z"/>
			<path d="M390.4,253.1c-0.3,0-0.6-0.1-0.8-0.3c-0.2-0.2-0.3-0.4-0.3-0.8v-2.5c0-0.2,0.1-0.5,0.2-0.9c0.1-0.4,0.4-0.7,0.9-1.1
				l5.5-5.5c2-1.6,3.7-2.9,5-4c1.3-1.1,2.2-2.1,2.8-3c0.6-0.9,0.9-1.8,0.9-2.6c0-1.1-0.3-2-0.9-2.7c-0.6-0.7-1.6-1.1-2.9-1.1
				c-0.9,0-1.6,0.2-2.2,0.6c-0.6,0.4-1.1,0.9-1.4,1.5c-0.3,0.6-0.6,1.3-0.7,2c-0.1,0.4-0.3,0.6-0.5,0.8c-0.3,0.1-0.5,0.2-0.8,0.2
				h-4.5c-0.3,0-0.5-0.1-0.7-0.3s-0.3-0.4-0.3-0.6c0-1.3,0.3-2.5,0.8-3.7c0.5-1.1,1.3-2.2,2.2-3.1c1-0.9,2.1-1.6,3.4-2.1
				c1.3-0.5,2.9-0.8,4.6-0.8c2.4,0,4.3,0.4,5.9,1.2c1.6,0.8,2.8,1.8,3.6,3.2c0.8,1.3,1.2,2.9,1.2,4.7c0,1.3-0.3,2.6-0.8,3.7
				c-0.5,1.1-1.3,2.2-2.4,3.3c-1,1-2.3,2.1-3.7,3.3l-5,5h11.4c0.3,0,0.6,0.1,0.8,0.3c0.2,0.2,0.3,0.4,0.3,0.8v3.6
				c0,0.3-0.1,0.6-0.3,0.8c-0.2,0.2-0.4,0.3-0.8,0.3H390.4z"/>
		</g>
	</g>
	<g class="st5">
		<g>
			<path d="M373.2,328.2c-0.3,0-0.6-0.1-0.8-0.3c-0.2-0.2-0.3-0.4-0.3-0.8v-7.9h-7.8c-0.3,0-0.6-0.1-0.8-0.3
				c-0.2-0.2-0.3-0.4-0.3-0.7v-2.6c0-0.3,0.1-0.6,0.3-0.8c0.2-0.2,0.4-0.3,0.8-0.3h7.8v-7.7c0-0.3,0.1-0.6,0.3-0.8
				c0.2-0.2,0.4-0.3,0.8-0.3h2.9c0.3,0,0.6,0.1,0.8,0.3c0.2,0.2,0.3,0.4,0.3,0.8v7.7h7.8c0.3,0,0.5,0.1,0.7,0.3
				c0.2,0.2,0.3,0.4,0.3,0.8v2.6c0,0.3-0.1,0.5-0.3,0.7c-0.2,0.2-0.4,0.3-0.7,0.3h-7.8v7.9c0,0.3-0.1,0.6-0.3,0.8
				c-0.2,0.2-0.4,0.3-0.8,0.3H373.2z"/>
			<path d="M390.4,329.5c-0.3,0-0.6-0.1-0.8-0.3c-0.2-0.2-0.3-0.4-0.3-0.8V326c0-0.2,0.1-0.5,0.2-0.9c0.1-0.4,0.4-0.7,0.9-1.1
				l5.5-5.5c2-1.6,3.7-2.9,5-4c1.3-1.1,2.2-2.1,2.8-3c0.6-0.9,0.9-1.8,0.9-2.6c0-1.1-0.3-2-0.9-2.7c-0.6-0.7-1.6-1.1-2.9-1.1
				c-0.9,0-1.6,0.2-2.2,0.6c-0.6,0.4-1.1,0.9-1.4,1.5c-0.3,0.6-0.6,1.3-0.7,2c-0.1,0.4-0.3,0.6-0.5,0.8c-0.3,0.1-0.5,0.2-0.8,0.2
				h-4.5c-0.3,0-0.5-0.1-0.7-0.3c-0.2-0.2-0.3-0.4-0.3-0.6c0-1.3,0.3-2.5,0.8-3.7c0.5-1.1,1.3-2.2,2.2-3.1c1-0.9,2.1-1.6,3.4-2.1
				c1.3-0.5,2.9-0.8,4.6-0.8c2.4,0,4.3,0.4,5.9,1.2c1.6,0.8,2.8,1.8,3.6,3.2c0.8,1.3,1.2,2.9,1.2,4.7c0,1.3-0.3,2.6-0.8,3.7
				c-0.5,1.1-1.3,2.2-2.4,3.3c-1,1-2.3,2.1-3.7,3.3l-5,5h11.4c0.3,0,0.6,0.1,0.8,0.3c0.2,0.2,0.3,0.4,0.3,0.8v3.6
				c0,0.3-0.1,0.6-0.3,0.8c-0.2,0.2-0.4,0.3-0.8,0.3H390.4z"/>
		</g>
	</g>
	<g class="st5">
		<g>
			<line class="st8" x1="190" y1="240" x2="261.3" y2="240"/>
			<g>
				<polygon class="st9" points="255.5,259.9 290,240 255.5,220.1 				"/>
			</g>
		</g>
	</g>
</g>
<g id="Layer_6" class="st1">
	<path class="st17" d="M439.5,198h-99c-8.5,0-15.5-7-15.5-15.5v-34c0-8.5,7-15.5,15.5-15.5h99c8.5,0,15.5,7,15.5,15.5v34
		C455,191.1,448,198,439.5,198z"/>
	<path class="st4" d="M439.5,124.8h-99c-8.5,0-15.5-7-15.5-15.5v-34c0-8.5,7-15.5,15.5-15.5h99c8.5,0,15.5,7,15.5,15.5v34
		C455,117.8,448,124.8,439.5,124.8z"/>
	<path class="st3" d="M439.5,271.3h-99c-8.5,0-15.5-7-15.5-15.5v-34c0-8.5,7-15.5,15.5-15.5h99c8.5,0,15.5,7,15.5,15.5v34
		C455,264.3,448,271.3,439.5,271.3z"/>
	<path class="st2" d="M439.5,344.5h-99c-8.5,0-15.5-7-15.5-15.5v-34c0-8.5,7-15.5,15.5-15.5h99c8.5,0,15.5,7,15.5,15.5v34
		C455,337.5,448,344.5,439.5,344.5z"/>
	<path class="st15" d="M439.5,417.7h-99c-8.5,0-15.5-7-15.5-15.5v-34c0-8.5,7-15.5,15.5-15.5h99c8.5,0,15.5,7,15.5,15.5v34
		C455,410.8,448,417.7,439.5,417.7z"/>
	<path class="st4" d="M139.5,164.8h-99c-8.5,0-15.5-7-15.5-15.5v-34c0-8.5,7-15.5,15.5-15.5h99c8.5,0,15.5,7,15.5,15.5v34
		C155,157.8,148,164.8,139.5,164.8z"/>
	<path class="st3" d="M139.5,271.3h-99c-8.5,0-15.5-7-15.5-15.5v-34c0-8.5,7-15.5,15.5-15.5h99c8.5,0,15.5,7,15.5,15.5v34
		C155,264.3,148,271.3,139.5,271.3z"/>
	<path class="st15" d="M139.5,377.7h-99c-8.5,0-15.5-7-15.5-15.5v-34c0-8.5,7-15.5,15.5-15.5h99c8.5,0,15.5,7,15.5,15.5v34
		C155,370.8,148,377.7,139.5,377.7z"/>
	<g class="st5">
		<g>
			<line class="st8" x1="190" y1="240" x2="261.3" y2="240"/>
			<g>
				<polygon class="st9" points="255.5,259.9 290,240 255.5,220.1 				"/>
			</g>
		</g>
	</g>
</g>
<g id="Layer_7" class="st1">
	<g class="st18">
		<g>
			<line class="st19" x1="240" y1="175" x2="240" y2="233.2"/>
			<g>
				<polygon class="st9" points="190.1,218.6 240,305 289.9,218.6 				"/>
			</g>
		</g>
	</g>
	<g class="st5">
		<path class="st11" d="M339.3,159H141.2c-17,0-31-13.9-31-31V60c0-17,13.9-31,31-31h198.1c17,0,31,13.9,31,31V128
			C370.3,145.1,356.3,159,339.3,159z"/>
		<rect x="102.1" y="29" class="st14" width="277.8" height="92.4"/>
		<g>
			<g>
				<path d="M199.7,121.2c-0.5,0-1-0.2-1.3-0.5c-0.3-0.3-0.5-0.8-0.5-1.3v-4.3c0-0.4,0.1-0.9,0.3-1.5c0.2-0.6,0.7-1.3,1.5-1.9
					l9.5-9.4c3.5-2.7,6.3-5,8.5-6.8c2.2-1.9,3.8-3.6,4.9-5.1c1.1-1.5,1.6-3,1.6-4.5c0-1.9-0.5-3.4-1.5-4.6c-1-1.2-2.7-1.8-5-1.8
					c-1.5,0-2.8,0.3-3.9,1c-1,0.6-1.8,1.5-2.4,2.6c-0.6,1.1-1,2.2-1.2,3.5c-0.1,0.6-0.4,1.1-0.9,1.3c-0.5,0.2-0.9,0.4-1.4,0.4h-7.6
					c-0.5,0-0.9-0.2-1.2-0.5c-0.3-0.3-0.4-0.7-0.4-1c0-2.2,0.5-4.3,1.4-6.3c0.9-2,2.1-3.7,3.8-5.3c1.6-1.5,3.6-2.7,5.9-3.6
					c2.3-0.9,4.9-1.3,7.8-1.3c4,0,7.4,0.7,10.2,2c2.7,1.3,4.8,3.1,6.2,5.4c1.4,2.3,2.1,5,2.1,8c0,2.3-0.5,4.4-1.4,6.4
					c-0.9,2-2.3,3.9-4.1,5.7c-1.8,1.8-3.9,3.7-6.3,5.6l-8.5,8.5h19.6c0.5,0,1,0.2,1.3,0.5c0.3,0.3,0.5,0.8,0.5,1.3v6.1
					c0,0.5-0.2,1-0.5,1.3c-0.3,0.3-0.8,0.5-1.3,0.5H199.7z"/>
				<path d="M253.3,121.2c-0.4,0-0.8-0.2-1.1-0.5c-0.3-0.3-0.4-0.7-0.4-1.1c0-0.2,0-0.4,0.1-0.6c0.1-0.1,0.1-0.3,0.2-0.4l10.4-14.3
					c-0.9,0.2-1.7,0.3-2.6,0.2c-2.3-0.1-4.5-0.6-6.6-1.4c-2.1-0.8-3.9-2-5.5-3.5c-1.6-1.5-2.9-3.2-3.8-5.3s-1.4-4.2-1.4-6.7
					c0-2.2,0.4-4.4,1.3-6.5c0.8-2.1,2.1-4,3.8-5.7c1.7-1.7,3.8-3,6.3-4c2.5-1,5.4-1.5,8.7-1.5c3.3,0,6.2,0.5,8.7,1.4
					c2.5,0.9,4.6,2.2,6.4,3.8c1.7,1.6,3,3.5,3.9,5.5c0.9,2.1,1.3,4.3,1.3,6.7c0,2.1-0.4,4.1-1.1,5.9c-0.7,1.8-1.6,3.5-2.7,5.1
					s-2.1,3.1-3.2,4.6L264,119.8c-0.2,0.2-0.5,0.5-0.9,0.9c-0.4,0.4-0.9,0.5-1.7,0.5H253.3z M262.8,96.2c1.6,0,3-0.3,4.3-1
					c1.3-0.7,2.3-1.6,3.1-2.9c0.7-1.2,1.1-2.7,1.1-4.5c0-1.8-0.4-3.3-1.1-4.5c-0.7-1.2-1.8-2.2-3.1-2.9c-1.3-0.7-2.7-1-4.3-1
					c-1.5,0-3,0.3-4.2,1c-1.3,0.7-2.3,1.6-3.1,2.9c-0.7,1.2-1.1,2.8-1.1,4.5c0,1.7,0.4,3.2,1.1,4.5c0.7,1.2,1.8,2.2,3.1,2.9
					C259.8,95.9,261.2,96.2,262.8,96.2z"/>
			</g>
		</g>
	</g>
	<g class="st5">
		<path class="st6" d="M339.3,449H141.2c-17,0-31-13.9-31-31V350c0-17,13.9-31,31-31h198.1c17,0,31,13.9,31,31V418
			C370.3,435.1,356.3,449,339.3,449z"/>
		<rect x="102.1" y="319" class="st14" width="277.8" height="92.4"/>
		<g>
			<g>
				<path d="M215.9,412c-3.6,0-6.6-0.4-9.1-1.3c-2.5-0.9-4.6-2-6.3-3.3c-1.6-1.3-2.9-2.8-3.7-4.4c-0.8-1.6-1.2-3.2-1.3-4.6
					c0-0.4,0.1-0.8,0.4-1.1c0.3-0.3,0.6-0.4,1.1-0.4h7.9c0.5,0,1,0.1,1.3,0.3c0.3,0.2,0.6,0.6,0.9,1.1c0.4,1.1,1,2,1.9,2.7
					c0.9,0.7,1.9,1.1,3.1,1.4c1.2,0.3,2.4,0.4,3.8,0.4c2.7,0,4.8-0.6,6.3-1.9c1.5-1.2,2.3-3,2.3-5.3c0-2.3-0.7-4-2.2-5
					s-3.5-1.5-6.1-1.5h-7.7c-0.5,0-0.9-0.2-1.2-0.5c-0.3-0.3-0.5-0.7-0.5-1.2v-3.5c0-0.6,0.1-1.1,0.3-1.4c0.2-0.4,0.4-0.7,0.7-0.9
					l12.4-11.4h-20.3c-0.5,0-1-0.2-1.3-0.5c-0.3-0.3-0.5-0.7-0.5-1.2v-5.8c0-0.5,0.2-1,0.5-1.3c0.3-0.3,0.8-0.5,1.3-0.5h32
					c0.5,0,1,0.2,1.3,0.5c0.3,0.3,0.5,0.8,0.5,1.3v5.2c0,0.5-0.1,1-0.3,1.3c-0.2,0.4-0.4,0.6-0.7,0.8L221,381.6l0.7,0.1
					c2.8,0.3,5.4,1,7.6,2.1c2.2,1.1,3.9,2.7,5.2,4.7c1.3,2,1.9,4.6,1.9,7.7c0,3.3-0.9,6.1-2.7,8.4c-1.8,2.4-4.2,4.2-7.3,5.4
					C223.4,411.3,219.9,412,215.9,412z"/>
				<path d="M263.4,412c-3.5,0-6.4-0.5-8.9-1.5c-2.5-1-4.5-2.4-6.1-4.1c-1.6-1.8-2.8-3.8-3.6-6.1s-1.3-4.8-1.4-7.5
					c0-1.3-0.1-2.7-0.1-4.4c0-1.6,0-3.2,0-4.9c0-1.6,0.1-3.1,0.1-4.5c0.1-2.6,0.6-5.1,1.4-7.4s2.1-4.3,3.7-6
					c1.6-1.7,3.7-3.1,6.2-4.1c2.5-1,5.4-1.5,8.7-1.5c3.4,0,6.3,0.5,8.7,1.5c2.4,1,4.5,2.3,6.1,4.1c1.6,1.7,2.9,3.7,3.7,6
					s1.3,4.8,1.5,7.4c0,1.3,0.1,2.8,0.1,4.5c0,1.6,0,3.3,0,4.9c0,1.6-0.1,3.1-0.1,4.4c-0.1,2.6-0.6,5.1-1.4,7.5
					c-0.8,2.3-2,4.4-3.6,6.1c-1.6,1.8-3.6,3.1-6.1,4.1C269.8,411.5,266.8,412,263.4,412z M263.4,402.6c2.8,0,4.8-0.9,6.1-2.7
					c1.3-1.8,2-4.3,2.1-7.4c0-1.4,0.1-2.8,0.1-4.3c0-1.5,0-3,0-4.5c0-1.5-0.1-2.9-0.1-4.2c-0.1-3-0.8-5.4-2.1-7.3s-3.3-2.8-6.1-2.9
					c-2.8,0-4.9,1-6.2,2.9c-1.3,1.9-2,4.3-2.1,7.3c0,1.3-0.1,2.7-0.1,4.2c0,1.5,0,3,0,4.5c0,1.5,0.1,2.9,0.1,4.3
					c0.1,3.1,0.8,5.6,2.1,7.4C258.6,401.7,260.7,402.6,263.4,402.6z"/>
			</g>
		</g>
	</g>
	<g class="st5">
		<g>
			<path class="st9" d="M121.9,261.1c-0.5,0-1-0.2-1.3-0.5c-0.3-0.3-0.5-0.8-0.5-1.3v-46.8c0-0.5,0.2-1,0.5-1.3
				c0.3-0.3,0.8-0.5,1.3-0.5H154c0.5,0,1,0.2,1.3,0.5c0.3,0.3,0.5,0.8,0.5,1.3v6.1c0,0.5-0.2,1-0.5,1.3c-0.3,0.3-0.8,0.5-1.3,0.5
				h-22.7v12.2h21.2c0.5,0,1,0.2,1.3,0.5c0.3,0.3,0.5,0.8,0.5,1.3v6.1c0,0.5-0.2,0.9-0.5,1.2c-0.3,0.3-0.8,0.5-1.3,0.5h-21.2v17.1
				c0,0.5-0.2,1-0.5,1.3c-0.3,0.3-0.8,0.5-1.3,0.5H121.9z"/>
			<path class="st9" d="M174.2,261.8c-2.5,0-4.8-0.5-6.8-1.5s-3.6-2.3-4.8-4c-1.2-1.7-1.8-3.6-1.8-5.6c0-3.4,1.4-6.1,4.1-8.1
				c2.8-2,6.4-3.3,10.9-4l9.4-1.4V236c0-1.9-0.4-3.3-1.3-4.3c-0.9-1-2.4-1.5-4.5-1.5c-1.6,0-2.9,0.3-3.8,0.9c-1,0.6-1.7,1.4-2.2,2.4
				c-0.4,0.6-0.9,0.9-1.7,0.9h-6.8c-0.5,0-0.9-0.2-1.2-0.5c-0.3-0.3-0.4-0.7-0.4-1.1c0-0.8,0.3-1.8,0.9-2.9c0.6-1.1,1.6-2.2,2.9-3.3
				c1.3-1.1,3-2,5-2.7c2-0.7,4.5-1.1,7.4-1.1c3,0,5.6,0.4,7.8,1.1c2.2,0.7,3.9,1.7,5.2,3c1.3,1.3,2.3,2.8,2.9,4.5
				c0.6,1.7,0.9,3.5,0.9,5.5v22.2c0,0.5-0.2,1-0.5,1.3c-0.3,0.3-0.8,0.5-1.3,0.5h-7.1c-0.5,0-0.9-0.2-1.2-0.5
				c-0.3-0.3-0.5-0.8-0.5-1.3v-2.7c-0.6,0.9-1.5,1.8-2.5,2.6c-1.1,0.8-2.3,1.4-3.8,1.9C177.9,261.6,176.2,261.8,174.2,261.8z
				 M177.1,254.3c1.6,0,3-0.3,4.2-1c1.2-0.7,2.2-1.7,3-3.1c0.7-1.4,1.1-3.1,1.1-5.3v-1.2l-6.7,1.1c-2.6,0.4-4.5,1.1-5.7,1.9
				c-1.2,0.9-1.8,1.9-1.8,3.2c0,0.9,0.3,1.7,0.8,2.4c0.6,0.7,1.3,1.2,2.2,1.5C175.1,254.2,176.1,254.3,177.1,254.3z"/>
			<path class="st9" d="M219.7,261.8c-3,0-5.5-0.3-7.7-1c-2.1-0.7-3.9-1.5-5.2-2.6c-1.3-1-2.3-2-3-3.1s-1-1.9-1-2.6
				c0-0.5,0.1-1,0.5-1.3c0.4-0.3,0.8-0.5,1.2-0.5h7c0.1,0,0.3,0,0.4,0.1c0.1,0,0.3,0.2,0.4,0.4c0.6,0.4,1.3,0.9,1.9,1.5
				c0.7,0.6,1.5,1,2.3,1.4c0.9,0.4,2,0.6,3.3,0.6c1.6,0,2.9-0.3,4-1c1.1-0.6,1.7-1.6,1.7-2.8c0-0.9-0.3-1.6-0.8-2.2
				s-1.5-1.1-2.8-1.6c-1.4-0.5-3.5-1-6.2-1.6c-2.6-0.6-4.8-1.3-6.6-2.3c-1.8-1-3.2-2.2-4.1-3.6c-0.9-1.5-1.4-3.2-1.4-5.3
				c0-1.9,0.6-3.7,1.8-5.4c1.2-1.7,2.9-3.2,5.2-4.3c2.3-1.1,5.2-1.7,8.6-1.7c2.6,0,5,0.3,6.9,1c2,0.6,3.7,1.5,5,2.4
				c1.3,1,2.4,2,3.1,3c0.7,1,1.1,1.9,1.1,2.7c0,0.5-0.1,0.9-0.4,1.2c-0.3,0.3-0.7,0.5-1.2,0.5h-6.4c-0.2,0-0.5,0-0.6-0.1
				c-0.2-0.1-0.4-0.2-0.5-0.3c-0.6-0.4-1.2-0.8-1.8-1.3c-0.6-0.5-1.3-0.9-2.1-1.3c-0.8-0.4-1.9-0.6-3.2-0.6c-1.6,0-2.8,0.3-3.6,1
				c-0.8,0.7-1.3,1.6-1.3,2.6c0,0.7,0.2,1.3,0.6,1.9s1.3,1.1,2.7,1.6c1.3,0.5,3.4,1,6.1,1.5c3.3,0.6,5.9,1.4,7.8,2.6
				c1.9,1.2,3.3,2.5,4.1,4c0.8,1.5,1.3,3.1,1.3,4.9c0,2.3-0.7,4.3-2,6c-1.3,1.8-3.3,3.1-5.9,4.1
				C226.6,261.3,223.4,261.8,219.7,261.8z"/>
			<path class="st9" d="M262,261.1c-3,0-5.5-0.5-7.6-1.5c-2.1-1-3.7-2.5-4.8-4.6c-1.1-2.1-1.6-4.7-1.6-7.8v-15.1h-5.6
				c-0.5,0-1-0.2-1.3-0.5c-0.3-0.3-0.5-0.8-0.5-1.3v-4.9c0-0.5,0.2-1,0.5-1.3c0.3-0.3,0.8-0.5,1.3-0.5h5.6v-11.9
				c0-0.5,0.2-1,0.5-1.3c0.4-0.3,0.8-0.5,1.3-0.5h7.1c0.5,0,1,0.2,1.3,0.5c0.3,0.3,0.5,0.8,0.5,1.3v11.9h9c0.5,0,0.9,0.2,1.2,0.5
				c0.3,0.3,0.5,0.8,0.5,1.3v4.9c0,0.5-0.2,1-0.5,1.3c-0.3,0.3-0.7,0.5-1.2,0.5h-9v14.3c0,1.8,0.3,3.3,1,4.3c0.6,1,1.8,1.5,3.4,1.5
				h5.3c0.5,0,0.9,0.2,1.2,0.5c0.3,0.3,0.5,0.7,0.5,1.2v5.3c0,0.5-0.2,1-0.5,1.3c-0.3,0.3-0.7,0.5-1.2,0.5H262z"/>
			<path class="st9" d="M292.9,261.8c-5.5,0-9.9-1.5-13.1-4.6c-3.2-3.1-5-7.5-5.1-13.4c0-0.4,0-0.9,0-1.5c0-0.6,0-1.2,0-1.5
				c0.2-3.7,1-6.9,2.5-9.5c1.5-2.7,3.6-4.7,6.3-6.1c2.7-1.4,5.8-2.1,9.4-2.1c4,0,7.4,0.8,10.1,2.5c2.7,1.7,4.8,3.9,6.1,6.8
				c1.4,2.9,2.1,6.1,2.1,9.8v1.7c0,0.5-0.2,0.9-0.5,1.2c-0.4,0.3-0.8,0.5-1.3,0.5h-23.5c0,0,0,0.1,0,0.3s0,0.2,0,0.3
				c0,1.5,0.3,2.9,0.9,4.2c0.6,1.3,1.3,2.3,2.4,3.1c1,0.8,2.3,1.2,3.7,1.2c1.2,0,2.2-0.2,3-0.5c0.8-0.3,1.4-0.7,1.9-1.2
				c0.5-0.5,0.9-0.9,1.1-1.2c0.4-0.5,0.8-0.8,1-0.9c0.3-0.1,0.7-0.2,1.3-0.2h7.5c0.5,0,0.9,0.1,1.2,0.4c0.3,0.3,0.4,0.6,0.4,1.1
				c0,0.8-0.4,1.7-1.2,2.8c-0.7,1.1-1.8,2.2-3.3,3.3c-1.4,1.1-3.2,2-5.4,2.7C298.2,261.5,295.7,261.8,292.9,261.8z M285.8,238.8
				h14.1v-0.1c0-1.7-0.3-3.2-0.8-4.5c-0.6-1.3-1.4-2.3-2.4-3c-1.1-0.7-2.3-1.1-3.8-1.1c-1.5,0-2.8,0.4-3.8,1.1
				c-1.1,0.7-1.9,1.7-2.4,3c-0.6,1.3-0.8,2.8-0.8,4.5V238.8z"/>
			<path class="st9" d="M320.1,261.1c-0.5,0-0.9-0.2-1.2-0.5c-0.3-0.3-0.5-0.8-0.5-1.3v-33.8c0-0.5,0.2-0.9,0.5-1.3
				c0.3-0.4,0.7-0.5,1.2-0.5h7.1c0.5,0,0.9,0.2,1.3,0.5s0.5,0.8,0.5,1.3v2.9c1.2-1.5,2.7-2.6,4.4-3.5c1.8-0.8,3.8-1.2,6.1-1.2h3.1
				c0.5,0,0.9,0.2,1.2,0.5c0.3,0.3,0.5,0.8,0.5,1.3v6.2c0,0.5-0.2,1-0.5,1.3c-0.3,0.3-0.7,0.5-1.2,0.5h-6.3c-2.1,0-3.8,0.6-5,1.8
				c-1.2,1.2-1.8,2.8-1.8,5v19.1c0,0.5-0.2,1-0.5,1.3c-0.3,0.3-0.8,0.5-1.3,0.5H320.1z"/>
			<path class="st9" d="M351.2,261.1c-0.5,0-0.9-0.2-1.2-0.5c-0.3-0.3-0.5-0.8-0.5-1.3v-7.7c0-0.5,0.2-1,0.5-1.3
				c0.3-0.3,0.7-0.5,1.2-0.5h7.8c0.5,0,1,0.2,1.3,0.5c0.3,0.3,0.5,0.8,0.5,1.3v7.7c0,0.5-0.2,1-0.5,1.3c-0.3,0.3-0.8,0.5-1.3,0.5
				H351.2z M351.7,246.2c-0.5,0-1-0.2-1.3-0.5c-0.3-0.3-0.5-0.8-0.5-1.3v-31.9c0-0.5,0.2-1,0.5-1.3c0.3-0.3,0.8-0.5,1.3-0.5h7
				c0.5,0,1,0.2,1.3,0.5c0.3,0.3,0.5,0.8,0.5,1.3v31.9c0,0.5-0.2,1-0.5,1.3c-0.3,0.3-0.8,0.5-1.3,0.5H351.7z"/>
		</g>
	</g>
</g>
<g id="Layer_4" class="st1">
	<g class="st5">
		<g>
			<defs>
				<rect id="SVGID_00000109738835923937302740000015169431613368552100_" x="-16" y="-16" width="512" height="512"/>
			</defs>
			<clipPath id="SVGID_00000038412207517807718980000006291726628641104273_">
				<use xlink:href="#SVGID_00000109738835923937302740000015169431613368552100_"  style="overflow:visible;"/>
			</clipPath>
			<path style="clip-path:url(#SVGID_00000038412207517807718980000006291726628641104273_);fill:#38BDF8;" d="M315,290H165
				c-13.8,0-25-11.2-25-25v-50c0-13.8,11.2-25,25-25h150c13.8,0,25,11.2,25,25v50C340,278.8,328.8,290,315,290z"/>
		</g>
		<g>
			<defs>
				<rect id="SVGID_00000122702974092168606200000017701938845787280541_" x="-16" y="-16" width="512" height="512"/>
			</defs>
			<clipPath id="SVGID_00000137120290864371644350000014460805209239739321_">
				<use xlink:href="#SVGID_00000122702974092168606200000017701938845787280541_"  style="overflow:visible;"/>
			</clipPath>
			<path style="clip-path:url(#SVGID_00000137120290864371644350000014460805209239739321_);fill:#3ADD71;" d="M315,170H165
				c-13.8,0-25-11.2-25-25V95c0-13.8,11.2-25,25-25h150c13.8,0,25,11.2,25,25v50C340,158.8,328.8,170,315,170z"/>
		</g>
		<g>
			<defs>
				<rect id="SVGID_00000006685517635986898010000003323777490592411572_" x="-16" y="-16" width="512" height="512"/>
			</defs>
			<clipPath id="SVGID_00000081628263686588470050000002322393301610924178_">
				<use xlink:href="#SVGID_00000006685517635986898010000003323777490592411572_"  style="overflow:visible;"/>
			</clipPath>
			<path style="clip-path:url(#SVGID_00000081628263686588470050000002322393301610924178_);fill:#F87171;" d="M315,530H165
				c-13.8,0-25-11.2-25-25v-50c0-13.8,11.2-25,25-25h150c13.8,0,25,11.2,25,25v50C340,518.8,328.8,530,315,530z"/>
		</g>
		<g>
			<defs>
				<rect id="SVGID_00000031899565225097913060000013239263970245414565_" x="-16" y="-16" width="512" height="512"/>
			</defs>
			<clipPath id="SVGID_00000092446489974263783480000016790982360656907935_">
				<use xlink:href="#SVGID_00000031899565225097913060000013239263970245414565_"  style="overflow:visible;"/>
			</clipPath>
			<path style="clip-path:url(#SVGID_00000092446489974263783480000016790982360656907935_);fill:#BA7DF9;" d="M315,410H165
				c-13.8,0-25-11.2-25-25v-50c0-13.8,11.2-25,25-25h150c13.8,0,25,11.2,25,25v50C340,398.8,328.8,410,315,410z"/>
		</g>
		<g>
			<defs>
				<rect id="SVGID_00000127039679176267160620000013340546751756486785_" x="-16" y="-16" width="512" height="512"/>
			</defs>
			<clipPath id="SVGID_00000150083533650965228170000002988910394088768415_">
				<use xlink:href="#SVGID_00000127039679176267160620000013340546751756486785_"  style="overflow:visible;"/>
			</clipPath>
			<path style="clip-path:url(#SVGID_00000150083533650965228170000002988910394088768415_);fill:#FBBF24;" d="M315,50H165
				c-13.8,0-25-11.2-25-25v-50c0-13.8,11.2-25,25-25h150c13.8,0,25,11.2,25,25v50C340,38.8,328.8,50,315,50z"/>
		</g>
	</g>
</g>
</svg>
