<?xml version="1.0" encoding="utf-8"?>
<!-- Generator: Adobe Illustrator 26.0.2, SVG Export Plug-In . SVG Version: 6.00 Build 0)  -->
<svg version="1.1" xmlns="http://www.w3.org/2000/svg" xmlns:xlink="http://www.w3.org/1999/xlink" x="0px" y="0px"
	 viewBox="0 0 480 480" style="enable-background:new 0 0 480 480;" xml:space="preserve">
<style type="text/css">
	.st0{fill:#FFFFFF;}
	.st1{display:none;}
	.st2{display:inline;fill:#BA7DF9;}
	.st3{display:inline;fill:#38BDF8;}
	.st4{display:inline;fill:#FBBF24;}
	.st5{display:inline;}
	.st6{fill:#38BDF8;}
	.st7{opacity:0.4;clip-path:url(#SVGID_00000031191013748313606630000007873517595635483287_);fill:#FFFFFF;}
	.st8{fill:none;stroke:#78716C;stroke-width:8;stroke-miterlimit:10;}
	.st9{fill:#78716C;}
	.st10{display:inline;fill:#78716C;stroke:#FFFFFF;stroke-width:8;stroke-miterlimit:10;}
	.st11{fill:#3ADD71;}
	.st12{opacity:0.4;}
	.st13{fill:#BA7DF9;}
	.st14{opacity:0.4;fill:#FFFFFF;}
	.st15{display:inline;fill:#F87171;}
	.st16{display:inline;fill:#A8A29E;}
	.st17{fill:#FBBF24;}
	.st18{fill:#F87171;}
	.st19{display:inline;opacity:0.4;}
	.st20{fill:none;stroke:#78716C;stroke-width:40;stroke-miterlimit:10;}
	.st21{clip-path:url(#SVGID_00000000182556097713123120000005261021327789818275_);fill:#38BDF8;}
	.st22{clip-path:url(#SVGID_00000093895976301435139180000001575881281724924070_);fill:#3ADD71;}
	.st23{clip-path:url(#SVGID_00000069381842126849511580000007466992056363037574_);fill:#F87171;}
	.st24{clip-path:url(#SVGID_00000121253237318428514600000001839652328216748184_);fill:#BA7DF9;}
	.st25{clip-path:url(#SVGID_00000129179577312287211060000016550081176558531971_);fill:#FBBF24;}
</style>
<g id="Layer_8">
	<path class="st0" d="M420,480H60c-33.1,0-60-26.9-60-60V60C0,26.9,26.9,0,60,0h360c33.1,0,60,26.9,60,60v360
		C480,453.1,453.1,480,420,480z"/>
</g>
<g id="Layer_1" class="st1">
	<path class="st2" d="M291.3,439.7h-180c-15.5,0-28.1-12.7-28.1-28.1v-61.9c0-15.5,12.7-28.1,28.1-28.1h180
		c15.5,0,28.1,12.7,28.1,28.1v61.9C319.4,427,306.8,439.7,291.3,439.7z"/>
	<path class="st3" d="M274.2,287.8H128.5c-12.5,0-22.8-10.2-22.8-22.8V215c0-12.5,10.2-22.8,22.8-22.8h145.7
		c12.5,0,22.8,10.2,22.8,22.8V265C296.9,277.6,286.7,287.8,274.2,287.8z"/>
	<path class="st4" d="M291.3,158.4h-180c-15.5,0-28.1-12.7-28.1-28.1V68.4c0-15.5,12.7-28.1,28.1-28.1h180
		c15.5,0,28.1,12.7,28.1,28.1v61.9C319.4,145.8,306.8,158.4,291.3,158.4z"/>
	<g class="st5">
		<path class="st6" d="M274.2,287.8H128.5c-12.5,0-22.8-10.2-22.8-22.8V215c0-12.5,10.2-22.8,22.8-22.8h145.7
			c12.5,0,22.8,10.2,22.8,22.8V265C296.9,277.6,286.7,287.8,274.2,287.8z"/>
		<g>
			<defs>
				<path id="SVGID_1_" d="M274.2,287.8H128.5c-12.5,0-22.8-10.2-22.8-22.8V215c0-12.5,10.2-22.8,22.8-22.8h145.7
					c12.5,0,22.8,10.2,22.8,22.8V265C296.9,277.6,286.7,287.8,274.2,287.8z"/>
			</defs>
			<clipPath id="SVGID_00000037673339634950247350000014054925170370385324_">
				<use xlink:href="#SVGID_1_"  style="overflow:visible;"/>
			</clipPath>
			
				<rect x="89.9" y="177" style="opacity:0.4;clip-path:url(#SVGID_00000037673339634950247350000014054925170370385324_);fill:#FFFFFF;" width="222.8" height="55.1"/>
		</g>
		<g>
			<g>
				<path d="M178.5,264.3c-3.3,0-6.2-0.4-8.6-1.2c-2.4-0.8-4.3-1.8-5.9-3.1c-1.5-1.3-2.7-2.6-3.4-4.2c-0.8-1.5-1.2-3-1.2-4.4
					c0-0.4,0.1-0.7,0.4-1c0.3-0.3,0.6-0.4,1-0.4h7.4c0.5,0,0.9,0.1,1.2,0.3c0.3,0.2,0.6,0.6,0.9,1c0.4,1,0.9,1.9,1.8,2.5
					c0.8,0.6,1.8,1.1,2.9,1.3c1.1,0.2,2.3,0.4,3.5,0.4c2.5,0,4.5-0.6,5.9-1.8c1.4-1.2,2.2-2.8,2.2-4.9c0-2.2-0.7-3.7-2-4.7
					c-1.4-0.9-3.3-1.4-5.7-1.4h-7.2c-0.5,0-0.8-0.2-1.1-0.5c-0.3-0.3-0.5-0.7-0.5-1.1v-3.3c0-0.5,0.1-1,0.3-1.4
					c0.2-0.4,0.4-0.6,0.6-0.8l11.6-10.7h-19c-0.5,0-0.9-0.2-1.2-0.5c-0.3-0.3-0.5-0.7-0.5-1.1v-5.4c0-0.5,0.2-0.9,0.5-1.2
					c0.3-0.3,0.7-0.5,1.2-0.5h30c0.5,0,0.9,0.2,1.2,0.5c0.3,0.3,0.5,0.7,0.5,1.2v4.9c0,0.5-0.1,0.9-0.3,1.2
					c-0.2,0.3-0.4,0.6-0.7,0.8l-11,10.9l0.7,0.1c2.7,0.3,5,0.9,7.1,2c2.1,1,3.7,2.5,4.9,4.4c1.2,1.9,1.8,4.3,1.8,7.3
					c0,3.1-0.8,5.7-2.5,7.9c-1.7,2.2-3.9,3.9-6.8,5.1C185.5,263.7,182.2,264.3,178.5,264.3z"/>
				<path d="M223,264.3c-3.2,0-6-0.5-8.3-1.4c-2.3-0.9-4.2-2.2-5.7-3.8c-1.5-1.6-2.6-3.6-3.4-5.7c-0.7-2.2-1.2-4.5-1.3-7
					c0-1.2-0.1-2.6-0.1-4.1c0-1.5,0-3,0-4.6c0-1.5,0.1-2.9,0.1-4.2c0.1-2.5,0.5-4.8,1.3-7c0.8-2.2,1.9-4,3.5-5.7
					c1.5-1.6,3.5-2.9,5.8-3.8c2.3-0.9,5.1-1.4,8.2-1.4c3.1,0,5.9,0.5,8.2,1.4c2.3,0.9,4.2,2.2,5.7,3.8c1.5,1.6,2.7,3.5,3.5,5.7
					c0.8,2.2,1.2,4.5,1.4,7c0,1.3,0.1,2.7,0.1,4.2c0,1.5,0,3,0,4.6c0,1.5-0.1,2.9-0.1,4.1c-0.1,2.5-0.6,4.8-1.3,7
					c-0.8,2.2-1.9,4.1-3.4,5.7c-1.5,1.6-3.4,2.9-5.7,3.8C229,263.8,226.2,264.3,223,264.3z M223,255.5c2.6,0,4.5-0.9,5.7-2.6
					c1.2-1.7,1.9-4,2-7c0-1.3,0.1-2.7,0.1-4.1c0-1.4,0-2.8,0-4.2c0-1.4-0.1-2.7-0.1-3.9c-0.1-2.8-0.7-5.1-2-6.8
					c-1.2-1.8-3.1-2.7-5.7-2.7c-2.7,0-4.6,0.9-5.8,2.7c-1.2,1.8-1.8,4-1.9,6.8c0,1.2-0.1,2.5-0.1,3.9c0,1.4,0,2.8,0,4.2
					c0,1.4,0.1,2.7,0.1,4.1c0.1,2.9,0.7,5.2,2,7C218.5,254.7,220.4,255.5,223,255.5z"/>
			</g>
		</g>
	</g>
	<g class="st5">
		<g>
			<line class="st8" x1="381.3" y1="128.1" x2="381.3" y2="351.9"/>
			<g>
				<polygon class="st9" points="361.4,133.9 381.3,99.4 401.3,133.9 				"/>
			</g>
			<g>
				<polygon class="st9" points="361.4,346.1 381.3,380.6 401.3,346.1 				"/>
			</g>
		</g>
	</g>
	<circle class="st10" cx="381.3" cy="240" r="22.5"/>
</g>
<g id="Layer_2" class="st1">
	<g class="st5">
		<path class="st11" d="M330.1,440H149.9c-15.5,0-28.2-12.7-28.2-28.2v-62c0-15.5,12.7-28.2,28.2-28.2h180.3
			c15.5,0,28.2,12.7,28.2,28.2v62C358.3,427.3,345.6,440,330.1,440z"/>
		<path class="st11" d="M330.1,299.2H149.9c-15.5,0-28.2-12.7-28.2-28.2v-62c0-15.5,12.7-28.2,28.2-28.2h180.3
			c15.5,0,28.2,12.7,28.2,28.2v62C358.3,286.5,345.6,299.2,330.1,299.2z"/>
		<path class="st11" d="M330.1,158.3H149.9c-15.5,0-28.2-12.7-28.2-28.2v-62c0-15.5,12.7-28.2,28.2-28.2h180.3
			c15.5,0,28.2,12.7,28.2,28.2v62C358.3,145.6,345.6,158.3,330.1,158.3z"/>
	</g>
	<g class="st5">
		<g class="st12">
			<path d="M176.5,257.5c-0.3,0-0.6-0.1-0.9-0.3s-0.3-0.5-0.3-0.9v-30.8c0-0.3,0.1-0.6,0.3-0.9c0.2-0.2,0.5-0.3,0.9-0.3h12.9
				c2.6,0,4.8,0.4,6.6,1.2c1.9,0.8,3.3,2,4.4,3.6c1.1,1.6,1.6,3.6,1.6,5.9c0,2.4-0.5,4.4-1.6,5.9c-1.1,1.6-2.5,2.7-4.4,3.5
				c-1.9,0.8-4.1,1.1-6.6,1.1H183v10.7c0,0.3-0.1,0.6-0.3,0.9s-0.5,0.3-0.9,0.3H176.5z M182.9,239.8h6.2c1.6,0,2.9-0.4,3.8-1.2
				c0.9-0.8,1.3-2,1.3-3.5c0-1.4-0.4-2.5-1.2-3.4c-0.8-0.9-2.1-1.3-3.9-1.3h-6.2V239.8z"/>
			<path d="M220.4,258c-2.8,0-5.2-0.5-7.3-1.4c-2.1-0.9-3.7-2.4-4.8-4.3s-1.7-4.4-1.7-7.4v-19.3c0-0.3,0.1-0.6,0.3-0.9
				c0.2-0.2,0.5-0.3,0.9-0.3h5.2c0.3,0,0.6,0.1,0.9,0.3c0.2,0.2,0.3,0.5,0.3,0.9v19.3c0,2.3,0.6,4.1,1.7,5.2
				c1.1,1.1,2.6,1.7,4.6,1.7c2,0,3.5-0.6,4.6-1.7c1.1-1.1,1.7-2.9,1.7-5.2v-19.3c0-0.3,0.1-0.6,0.4-0.9c0.2-0.2,0.5-0.3,0.8-0.3h5.2
				c0.3,0,0.6,0.1,0.8,0.3c0.2,0.2,0.3,0.5,0.3,0.9v19.3c0,3-0.6,5.5-1.7,7.4c-1.1,1.9-2.7,3.4-4.8,4.3
				C225.6,257.5,223.2,258,220.4,258z"/>
			<path d="M242.1,257.5c-0.3,0-0.6-0.1-0.9-0.3s-0.3-0.5-0.3-0.9v-30.8c0-0.3,0.1-0.6,0.3-0.9c0.2-0.2,0.5-0.3,0.9-0.3h21.1
				c0.3,0,0.6,0.1,0.9,0.3c0.2,0.2,0.3,0.5,0.3,0.9v4c0,0.3-0.1,0.6-0.3,0.9c-0.2,0.2-0.5,0.3-0.9,0.3h-14.9v8h14
				c0.3,0,0.6,0.1,0.9,0.3c0.2,0.2,0.3,0.5,0.3,0.9v4c0,0.3-0.1,0.6-0.3,0.8c-0.2,0.2-0.5,0.3-0.9,0.3h-14v11.2
				c0,0.3-0.1,0.6-0.3,0.9c-0.2,0.2-0.5,0.3-0.9,0.3H242.1z"/>
			<path d="M270.9,257.5c-0.3,0-0.6-0.1-0.9-0.3s-0.3-0.5-0.3-0.9v-30.8c0-0.3,0.1-0.6,0.3-0.9c0.2-0.2,0.5-0.3,0.9-0.3H292
				c0.3,0,0.6,0.1,0.9,0.3c0.2,0.2,0.3,0.5,0.3,0.9v4c0,0.3-0.1,0.6-0.3,0.9c-0.2,0.2-0.5,0.3-0.9,0.3h-14.9v8h14
				c0.3,0,0.6,0.1,0.9,0.3c0.2,0.2,0.3,0.5,0.3,0.9v4c0,0.3-0.1,0.6-0.3,0.8c-0.2,0.2-0.5,0.3-0.9,0.3h-14v11.2
				c0,0.3-0.1,0.6-0.3,0.9c-0.2,0.2-0.5,0.3-0.9,0.3H270.9z"/>
			<path d="M299,257.5c-0.3,0-0.6-0.1-0.8-0.3s-0.3-0.5-0.3-0.9v-5.1c0-0.3,0.1-0.6,0.3-0.9s0.5-0.3,0.8-0.3h5.1
				c0.3,0,0.6,0.1,0.9,0.3s0.3,0.5,0.3,0.9v5.1c0,0.3-0.1,0.6-0.3,0.9s-0.5,0.3-0.9,0.3H299z M299.3,247.7c-0.3,0-0.6-0.1-0.9-0.3
				c-0.2-0.2-0.3-0.5-0.3-0.9v-21c0-0.3,0.1-0.6,0.3-0.9c0.2-0.2,0.5-0.3,0.9-0.3h4.6c0.3,0,0.6,0.1,0.9,0.3
				c0.2,0.2,0.3,0.5,0.3,0.9v21c0,0.3-0.1,0.6-0.3,0.9c-0.2,0.2-0.5,0.3-0.9,0.3H299.3z"/>
		</g>
	</g>
	<g class="st5">
		<g class="st12">
			<path d="M176.5,398.4c-0.3,0-0.6-0.1-0.9-0.3s-0.3-0.5-0.3-0.9v-30.8c0-0.3,0.1-0.6,0.3-0.9c0.2-0.2,0.5-0.3,0.9-0.3h12.9
				c2.6,0,4.8,0.4,6.6,1.2c1.9,0.8,3.3,2,4.4,3.6c1.1,1.6,1.6,3.6,1.6,5.9c0,2.4-0.5,4.4-1.6,5.9c-1.1,1.6-2.5,2.7-4.4,3.5
				c-1.9,0.8-4.1,1.1-6.6,1.1H183v10.7c0,0.3-0.1,0.6-0.3,0.9s-0.5,0.3-0.9,0.3H176.5z M182.9,380.6h6.2c1.6,0,2.9-0.4,3.8-1.2
				c0.9-0.8,1.3-2,1.3-3.5c0-1.4-0.4-2.5-1.2-3.4c-0.8-0.9-2.1-1.3-3.9-1.3h-6.2V380.6z"/>
			<path d="M220.4,398.8c-2.8,0-5.2-0.5-7.3-1.4c-2.1-0.9-3.7-2.4-4.8-4.3s-1.7-4.4-1.7-7.4v-19.3c0-0.3,0.1-0.6,0.3-0.9
				c0.2-0.2,0.5-0.3,0.9-0.3h5.2c0.3,0,0.6,0.1,0.9,0.3c0.2,0.2,0.3,0.5,0.3,0.9v19.3c0,2.3,0.6,4.1,1.7,5.2
				c1.1,1.1,2.6,1.7,4.6,1.7c2,0,3.5-0.6,4.6-1.7c1.1-1.1,1.7-2.9,1.7-5.2v-19.3c0-0.3,0.1-0.6,0.4-0.9c0.2-0.2,0.5-0.3,0.8-0.3h5.2
				c0.3,0,0.6,0.1,0.8,0.3c0.2,0.2,0.3,0.5,0.3,0.9v19.3c0,3-0.6,5.5-1.7,7.4c-1.1,1.9-2.7,3.4-4.8,4.3
				C225.6,398.4,223.2,398.8,220.4,398.8z"/>
			<path d="M242.1,398.4c-0.3,0-0.6-0.1-0.9-0.3s-0.3-0.5-0.3-0.9v-30.8c0-0.3,0.1-0.6,0.3-0.9c0.2-0.2,0.5-0.3,0.9-0.3h21.1
				c0.3,0,0.6,0.1,0.9,0.3c0.2,0.2,0.3,0.5,0.3,0.9v4c0,0.3-0.1,0.6-0.3,0.9c-0.2,0.2-0.5,0.3-0.9,0.3h-14.9v8h14
				c0.3,0,0.6,0.1,0.9,0.3c0.2,0.2,0.3,0.5,0.3,0.9v4c0,0.3-0.1,0.6-0.3,0.8c-0.2,0.2-0.5,0.3-0.9,0.3h-14v11.2
				c0,0.3-0.1,0.6-0.3,0.9c-0.2,0.2-0.5,0.3-0.9,0.3H242.1z"/>
			<path d="M270.9,398.4c-0.3,0-0.6-0.1-0.9-0.3s-0.3-0.5-0.3-0.9v-30.8c0-0.3,0.1-0.6,0.3-0.9c0.2-0.2,0.5-0.3,0.9-0.3H292
				c0.3,0,0.6,0.1,0.9,0.3c0.2,0.2,0.3,0.5,0.3,0.9v4c0,0.3-0.1,0.6-0.3,0.9c-0.2,0.2-0.5,0.3-0.9,0.3h-14.9v8h14
				c0.3,0,0.6,0.1,0.9,0.3c0.2,0.2,0.3,0.5,0.3,0.9v4c0,0.3-0.1,0.6-0.3,0.8c-0.2,0.2-0.5,0.3-0.9,0.3h-14v11.2
				c0,0.3-0.1,0.6-0.3,0.9c-0.2,0.2-0.5,0.3-0.9,0.3H270.9z"/>
			<path d="M299,398.4c-0.3,0-0.6-0.1-0.8-0.3s-0.3-0.5-0.3-0.9v-5.1c0-0.3,0.1-0.6,0.3-0.9s0.5-0.3,0.8-0.3h5.1
				c0.3,0,0.6,0.1,0.9,0.3s0.3,0.5,0.3,0.9v5.1c0,0.3-0.1,0.6-0.3,0.9s-0.5,0.3-0.9,0.3H299z M299.3,388.6c-0.3,0-0.6-0.1-0.9-0.3
				c-0.2-0.2-0.3-0.5-0.3-0.9v-21c0-0.3,0.1-0.6,0.3-0.9c0.2-0.2,0.5-0.3,0.9-0.3h4.6c0.3,0,0.6,0.1,0.9,0.3
				c0.2,0.2,0.3,0.5,0.3,0.9v21c0,0.3-0.1,0.6-0.3,0.9c-0.2,0.2-0.5,0.3-0.9,0.3H299.3z"/>
		</g>
	</g>
	<g class="st5">
		<g class="st12">
			<path d="M176.5,116.7c-0.3,0-0.6-0.1-0.9-0.3s-0.3-0.5-0.3-0.9V84.7c0-0.3,0.1-0.6,0.3-0.9c0.2-0.2,0.5-0.3,0.9-0.3h12.9
				c2.6,0,4.8,0.4,6.6,1.2c1.9,0.8,3.3,2,4.4,3.6c1.1,1.6,1.6,3.6,1.6,5.9c0,2.4-0.5,4.4-1.6,5.9c-1.1,1.6-2.5,2.7-4.4,3.5
				c-1.9,0.8-4.1,1.1-6.6,1.1H183v10.7c0,0.3-0.1,0.6-0.3,0.9s-0.5,0.3-0.9,0.3H176.5z M182.9,98.9h6.2c1.6,0,2.9-0.4,3.8-1.2
				c0.9-0.8,1.3-2,1.3-3.5c0-1.4-0.4-2.5-1.2-3.4c-0.8-0.9-2.1-1.3-3.9-1.3h-6.2V98.9z"/>
			<path d="M220.4,117.1c-2.8,0-5.2-0.5-7.3-1.4c-2.1-0.9-3.7-2.4-4.8-4.3c-1.1-1.9-1.7-4.4-1.7-7.4V84.7c0-0.3,0.1-0.6,0.3-0.9
				c0.2-0.2,0.5-0.3,0.9-0.3h5.2c0.3,0,0.6,0.1,0.9,0.3c0.2,0.2,0.3,0.5,0.3,0.9V104c0,2.3,0.6,4.1,1.7,5.2c1.1,1.1,2.6,1.7,4.6,1.7
				c2,0,3.5-0.6,4.6-1.7c1.1-1.1,1.7-2.9,1.7-5.2V84.7c0-0.3,0.1-0.6,0.4-0.9c0.2-0.2,0.5-0.3,0.8-0.3h5.2c0.3,0,0.6,0.1,0.8,0.3
				c0.2,0.2,0.3,0.5,0.3,0.9V104c0,3-0.6,5.5-1.7,7.4c-1.1,1.9-2.7,3.4-4.8,4.3C225.6,116.7,223.2,117.1,220.4,117.1z"/>
			<path d="M242.1,116.7c-0.3,0-0.6-0.1-0.9-0.3s-0.3-0.5-0.3-0.9V84.7c0-0.3,0.1-0.6,0.3-0.9c0.2-0.2,0.5-0.3,0.9-0.3h21.1
				c0.3,0,0.6,0.1,0.9,0.3c0.2,0.2,0.3,0.5,0.3,0.9v4c0,0.3-0.1,0.6-0.3,0.9c-0.2,0.2-0.5,0.3-0.9,0.3h-14.9v8h14
				c0.3,0,0.6,0.1,0.9,0.3c0.2,0.2,0.3,0.5,0.3,0.9v4c0,0.3-0.1,0.6-0.3,0.8s-0.5,0.3-0.9,0.3h-14v11.2c0,0.3-0.1,0.6-0.3,0.9
				c-0.2,0.2-0.5,0.3-0.9,0.3H242.1z"/>
			<path d="M270.9,116.7c-0.3,0-0.6-0.1-0.9-0.3s-0.3-0.5-0.3-0.9V84.7c0-0.3,0.1-0.6,0.3-0.9c0.2-0.2,0.5-0.3,0.9-0.3H292
				c0.3,0,0.6,0.1,0.9,0.3c0.2,0.2,0.3,0.5,0.3,0.9v4c0,0.3-0.1,0.6-0.3,0.9c-0.2,0.2-0.5,0.3-0.9,0.3h-14.9v8h14
				c0.3,0,0.6,0.1,0.9,0.3c0.2,0.2,0.3,0.5,0.3,0.9v4c0,0.3-0.1,0.6-0.3,0.8c-0.2,0.2-0.5,0.3-0.9,0.3h-14v11.2
				c0,0.3-0.1,0.6-0.3,0.9c-0.2,0.2-0.5,0.3-0.9,0.3H270.9z"/>
			<path d="M299,116.7c-0.3,0-0.6-0.1-0.8-0.3s-0.3-0.5-0.3-0.9v-5.1c0-0.3,0.1-0.6,0.3-0.9c0.2-0.2,0.5-0.3,0.8-0.3h5.1
				c0.3,0,0.6,0.1,0.9,0.3c0.2,0.2,0.3,0.5,0.3,0.9v5.1c0,0.3-0.1,0.6-0.3,0.9s-0.5,0.3-0.9,0.3H299z M299.3,106.9
				c-0.3,0-0.6-0.1-0.9-0.3c-0.2-0.2-0.3-0.5-0.3-0.9v-21c0-0.3,0.1-0.6,0.3-0.9c0.2-0.2,0.5-0.3,0.9-0.3h4.6c0.3,0,0.6,0.1,0.9,0.3
				c0.2,0.2,0.3,0.5,0.3,0.9v21c0,0.3-0.1,0.6-0.3,0.9c-0.2,0.2-0.5,0.3-0.9,0.3H299.3z"/>
		</g>
	</g>
</g>
<g id="Layer_3" class="st1">
	<g class="st5">
		<path class="st13" d="M313.6,288.3H166.4c-12.6,0-23-10.3-23-23v-50.6c0-12.6,10.3-23,23-23h147.1c12.6,0,23,10.3,23,23v50.6
			C336.6,277.9,326.2,288.3,313.6,288.3z"/>
		<rect x="137.4" y="191.7" class="st14" width="206.3" height="68.6"/>
		<g>
			<g class="st12">
				<path d="M187.7,254.7c-2.5,0-4.5-0.4-6.2-1.1s-2.9-1.7-3.8-2.8c-0.8-1.2-1.3-2.4-1.4-3.7c0-0.2,0.1-0.4,0.2-0.6
					c0.2-0.2,0.3-0.3,0.6-0.3h4.1c0.3,0,0.6,0.1,0.8,0.2s0.3,0.3,0.5,0.5c0.2,0.4,0.5,0.9,0.9,1.3c0.4,0.4,0.9,0.8,1.6,1
					c0.7,0.3,1.6,0.4,2.6,0.4c1.7,0,2.9-0.3,3.8-0.8c0.8-0.5,1.3-1.3,1.3-2.2c0-0.7-0.2-1.2-0.7-1.6c-0.5-0.4-1.2-0.8-2.1-1.1
					c-1-0.3-2.2-0.7-3.8-1.1c-1.9-0.4-3.6-0.9-4.9-1.6c-1.4-0.7-2.4-1.5-3.1-2.5c-0.7-1-1-2.3-1-3.9s0.4-2.9,1.3-4.1s2-2.1,3.6-2.8
					c1.5-0.7,3.4-1,5.5-1c1.7,0,3.3,0.2,4.6,0.7c1.3,0.5,2.4,1.1,3.3,1.8c0.9,0.7,1.6,1.5,2,2.4c0.5,0.8,0.7,1.7,0.7,2.5
					c0,0.2-0.1,0.4-0.2,0.6c-0.2,0.2-0.3,0.3-0.6,0.3H193c-0.3,0-0.5-0.1-0.7-0.2c-0.2-0.1-0.4-0.3-0.5-0.5
					c-0.2-0.7-0.6-1.3-1.4-1.8c-0.8-0.5-1.7-0.8-3-0.8c-1.3,0-2.3,0.2-3,0.7c-0.7,0.5-1.1,1.2-1.1,2.1c0,0.6,0.2,1.1,0.6,1.6
					c0.4,0.4,1,0.8,1.9,1.1c0.9,0.3,2.1,0.7,3.5,1.1c2.3,0.5,4.1,1,5.5,1.7c1.4,0.6,2.5,1.5,3.1,2.5c0.7,1,1,2.3,1,3.8
					c0,1.7-0.5,3.2-1.4,4.4c-1,1.2-2.3,2.2-4,2.8C191.9,254.4,189.9,254.7,187.7,254.7z"/>
				<path d="M213.9,254.7c-2.4,0-4.5-0.4-6.2-1.2c-1.7-0.8-3-2-3.9-3.6c-0.9-1.6-1.4-3.5-1.5-5.7c0-1.1,0-2.2,0-3.4s0-2.4,0-3.5
					c0.1-2.2,0.6-4.1,1.6-5.7c0.9-1.6,2.3-2.7,4-3.6c1.7-0.8,3.7-1.2,6.1-1.2c1.7,0,3.3,0.2,4.7,0.7c1.4,0.4,2.6,1.1,3.7,1.9
					c1,0.8,1.8,1.8,2.4,2.9c0.6,1.1,0.9,2.3,0.9,3.7c0,0.2-0.1,0.4-0.3,0.6c-0.2,0.2-0.4,0.2-0.6,0.2h-4.4c-0.3,0-0.6-0.1-0.7-0.2
					c-0.2-0.2-0.3-0.4-0.4-0.8c-0.4-1.5-1-2.6-1.9-3.1c-0.9-0.6-2-0.8-3.4-0.8c-1.6,0-2.9,0.4-3.8,1.3c-0.9,0.9-1.4,2.3-1.5,4.4
					c-0.1,2.1-0.1,4.3,0,6.5c0.1,2,0.6,3.5,1.5,4.4c0.9,0.9,2.2,1.3,3.8,1.3c1.3,0,2.5-0.3,3.4-0.9c0.9-0.6,1.6-1.6,1.9-3.1
					c0.1-0.4,0.2-0.6,0.4-0.8c0.2-0.1,0.4-0.2,0.7-0.2h4.4c0.2,0,0.4,0.1,0.6,0.2c0.2,0.2,0.3,0.3,0.3,0.6c-0.1,1.4-0.4,2.6-0.9,3.7
					c-0.6,1.1-1.4,2.1-2.4,2.9c-1,0.8-2.3,1.5-3.7,1.9C217.2,254.5,215.6,254.7,213.9,254.7z"/>
				<path d="M240.7,254.7c-2.3,0-4.4-0.4-6.1-1.2c-1.7-0.8-3-1.9-4-3.5c-1-1.6-1.5-3.5-1.5-5.9c0-1.1,0-2.2,0-3.3c0-1.1,0-2.2,0-3.3
					c0.1-2.3,0.6-4.3,1.6-5.9c1-1.6,2.3-2.8,4-3.6c1.7-0.8,3.7-1.2,6-1.2c2.3,0,4.3,0.4,6,1.2c1.7,0.8,3.1,2,4,3.6
					c1,1.6,1.5,3.5,1.5,5.9c0.1,1.1,0.1,2.2,0.1,3.3c0,1.1,0,2.2-0.1,3.3c-0.1,2.4-0.6,4.3-1.5,5.9c-1,1.6-2.3,2.7-4,3.5
					S243,254.7,240.7,254.7z M240.7,249.7c1.5,0,2.7-0.5,3.7-1.4c1-0.9,1.5-2.4,1.5-4.4c0.1-1.1,0.1-2.2,0.1-3.2s0-2-0.1-3.1
					c0-1.3-0.3-2.4-0.7-3.3s-1.1-1.5-1.8-1.9c-0.8-0.4-1.6-0.6-2.6-0.6s-1.9,0.2-2.7,0.6c-0.8,0.4-1.4,1-1.8,1.9
					c-0.5,0.8-0.7,1.9-0.8,3.3c0,1.1,0,2.2,0,3.1s0,2.1,0,3.2c0.1,2,0.6,3.5,1.5,4.4S239.1,249.7,240.7,249.7z"/>
				<path d="M258,254.3c-0.3,0-0.5-0.1-0.7-0.3c-0.2-0.2-0.3-0.4-0.3-0.7v-25.1c0-0.3,0.1-0.5,0.3-0.7c0.2-0.2,0.4-0.3,0.7-0.3h10.2
					c3.2,0,5.8,0.7,7.6,2.2c1.9,1.5,2.8,3.6,2.8,6.4c0,1.9-0.5,3.5-1.4,4.7s-2.1,2.2-3.6,2.8l5.4,9.7c0.1,0.2,0.1,0.3,0.1,0.4
					c0,0.2-0.1,0.4-0.2,0.6c-0.2,0.2-0.3,0.3-0.6,0.3h-4.3c-0.5,0-0.8-0.1-1-0.4c-0.2-0.2-0.4-0.5-0.5-0.7l-4.7-8.8h-4.7v8.9
					c0,0.3-0.1,0.5-0.3,0.7c-0.2,0.2-0.4,0.3-0.7,0.3H258z M263.2,239.5h4.9c1.4,0,2.5-0.3,3.1-1c0.7-0.6,1-1.5,1-2.7
					c0-1.2-0.3-2.1-1-2.7c-0.7-0.7-1.7-1-3.2-1h-4.9V239.5z"/>
				<path d="M284.4,254.3c-0.3,0-0.5-0.1-0.7-0.3c-0.2-0.2-0.3-0.4-0.3-0.7v-25.1c0-0.3,0.1-0.5,0.3-0.7c0.2-0.2,0.4-0.3,0.7-0.3
					h17.5c0.3,0,0.5,0.1,0.7,0.3c0.2,0.2,0.3,0.4,0.3,0.7v3.1c0,0.3-0.1,0.5-0.3,0.7c-0.2,0.2-0.4,0.3-0.7,0.3h-12.5v6.1H301
					c0.3,0,0.5,0.1,0.7,0.3c0.2,0.2,0.3,0.4,0.3,0.7v2.9c0,0.3-0.1,0.5-0.3,0.7c-0.2,0.2-0.4,0.3-0.7,0.3h-11.7v6.3h12.8
					c0.3,0,0.5,0.1,0.7,0.3c0.2,0.2,0.3,0.4,0.3,0.7v3.1c0,0.3-0.1,0.5-0.3,0.7c-0.2,0.2-0.4,0.3-0.7,0.3H284.4z"/>
			</g>
		</g>
	</g>
	<path class="st4" d="M328.3,155.9H151.7c-15.2,0-27.6-12.4-27.6-27.6V67.6c0-15.2,12.4-27.6,27.6-27.6h176.6
		c15.2,0,27.6,12.4,27.6,27.6v60.7C355.9,143.4,343.4,155.9,328.3,155.9z"/>
	<path class="st15" d="M328.3,440H151.7c-15.2,0-27.6-12.4-27.6-27.6v-60.7c0-15.2,12.4-27.6,27.6-27.6h176.6
		c15.2,0,27.6,12.4,27.6,27.6v60.7C355.9,427.6,343.4,440,328.3,440z"/>
</g>
<g id="Layer_5" class="st1">
	<path class="st3" d="M150.2,98.1H61.6c-7.6,0-13.8-6.2-13.8-13.8V53.8C47.8,46.2,54,40,61.6,40h88.6c7.6,0,13.8,6.2,13.8,13.8v30.4
		C164,91.9,157.8,98.1,150.2,98.1z"/>
	<path class="st16" d="M150.2,166.5H61.6c-7.6,0-13.8-6.2-13.8-13.8v-30.4c0-7.6,6.2-13.8,13.8-13.8h88.6c7.6,0,13.8,6.2,13.8,13.8
		v30.4C164,160.3,157.8,166.5,150.2,166.5z"/>
	<path class="st16" d="M150.2,234.9H61.6c-7.6,0-13.8-6.2-13.8-13.8v-30.4c0-7.6,6.2-13.8,13.8-13.8h88.6c7.6,0,13.8,6.2,13.8,13.8
		V221C164,228.6,157.8,234.9,150.2,234.9z"/>
	<path class="st16" d="M150.2,303.2H61.6c-7.6,0-13.8-6.2-13.8-13.8V259c0-7.6,6.2-13.8,13.8-13.8h88.6c7.6,0,13.8,6.2,13.8,13.8
		v30.4C164,297,157.8,303.2,150.2,303.2z"/>
	<path class="st3" d="M150.2,371.6H61.6c-7.6,0-13.8-6.2-13.8-13.8v-30.4c0-7.6,6.2-13.8,13.8-13.8h88.6c7.6,0,13.8,6.2,13.8,13.8
		v30.4C164,365.4,157.8,371.6,150.2,371.6z"/>
	<path class="st3" d="M150.2,440H61.6c-7.6,0-13.8-6.2-13.8-13.8v-30.4c0-7.6,6.2-13.8,13.8-13.8h88.6c7.6,0,13.8,6.2,13.8,13.8
		v30.4C164,433.8,157.8,440,150.2,440z"/>
	<g class="st5">
		<g>
			<path d="M93.8,149c-0.3,0-0.5-0.1-0.7-0.3c-0.2-0.2-0.3-0.4-0.3-0.7V141h-6.9c-0.3,0-0.5-0.1-0.7-0.3c-0.2-0.2-0.3-0.4-0.3-0.6
				v-2.4c0-0.3,0.1-0.5,0.3-0.7c0.2-0.2,0.4-0.3,0.7-0.3h6.9v-6.9c0-0.3,0.1-0.5,0.3-0.7c0.2-0.2,0.4-0.3,0.7-0.3h2.6
				c0.3,0,0.5,0.1,0.7,0.3c0.2,0.2,0.3,0.4,0.3,0.7v6.9h6.9c0.2,0,0.5,0.1,0.6,0.3c0.2,0.2,0.3,0.4,0.3,0.7v2.4
				c0,0.3-0.1,0.5-0.3,0.6c-0.2,0.2-0.4,0.3-0.6,0.3h-6.9v7.1c0,0.3-0.1,0.5-0.3,0.7c-0.2,0.2-0.4,0.3-0.7,0.3H93.8z"/>
			<path d="M117,150.2c-0.3,0-0.5-0.1-0.7-0.3c-0.2-0.2-0.3-0.4-0.3-0.7v-18.7l-5.4,4.2c-0.2,0.2-0.5,0.2-0.7,0.2
				c-0.2,0-0.4-0.2-0.6-0.4l-1.9-2.4c-0.2-0.2-0.2-0.5-0.2-0.7c0-0.2,0.2-0.5,0.4-0.6l8.6-6.6c0.2-0.1,0.3-0.2,0.4-0.2
				c0.1,0,0.3-0.1,0.5-0.1h4c0.2,0,0.5,0.1,0.6,0.3c0.2,0.2,0.3,0.4,0.3,0.7v24.4c0,0.3-0.1,0.5-0.3,0.7c-0.2,0.2-0.4,0.3-0.6,0.3
				H117z"/>
		</g>
	</g>
	<g class="st5">
		<g>
			<path d="M93.8,217.4c-0.3,0-0.5-0.1-0.7-0.3c-0.2-0.2-0.3-0.4-0.3-0.7v-7.1h-6.9c-0.3,0-0.5-0.1-0.7-0.3
				c-0.2-0.2-0.3-0.4-0.3-0.6v-2.4c0-0.3,0.1-0.5,0.3-0.7c0.2-0.2,0.4-0.3,0.7-0.3h6.9v-6.9c0-0.3,0.1-0.5,0.3-0.7
				c0.2-0.2,0.4-0.3,0.7-0.3h2.6c0.3,0,0.5,0.1,0.7,0.3c0.2,0.2,0.3,0.4,0.3,0.7v6.9h6.9c0.2,0,0.5,0.1,0.6,0.3
				c0.2,0.2,0.3,0.4,0.3,0.7v2.4c0,0.3-0.1,0.5-0.3,0.6c-0.2,0.2-0.4,0.3-0.6,0.3h-6.9v7.1c0,0.3-0.1,0.5-0.3,0.7
				c-0.2,0.2-0.4,0.3-0.7,0.3H93.8z"/>
			<path d="M117,218.6c-0.3,0-0.5-0.1-0.7-0.3c-0.2-0.2-0.3-0.4-0.3-0.7V199l-5.4,4.2c-0.2,0.2-0.5,0.2-0.7,0.2
				c-0.2,0-0.4-0.2-0.6-0.4l-1.9-2.4c-0.2-0.2-0.2-0.5-0.2-0.7c0-0.2,0.2-0.5,0.4-0.6l8.6-6.6c0.2-0.1,0.3-0.2,0.4-0.2
				c0.1,0,0.3-0.1,0.5-0.1h4c0.2,0,0.5,0.1,0.6,0.3c0.2,0.2,0.3,0.4,0.3,0.7v24.4c0,0.3-0.1,0.5-0.3,0.7c-0.2,0.2-0.4,0.3-0.6,0.3
				H117z"/>
		</g>
	</g>
	<g class="st5">
		<g>
			<path d="M93.8,285.7c-0.3,0-0.5-0.1-0.7-0.3c-0.2-0.2-0.3-0.4-0.3-0.7v-7.1h-6.9c-0.3,0-0.5-0.1-0.7-0.3
				c-0.2-0.2-0.3-0.4-0.3-0.6v-2.4c0-0.3,0.1-0.5,0.3-0.7c0.2-0.2,0.4-0.3,0.7-0.3h6.9v-6.9c0-0.3,0.1-0.5,0.3-0.7
				c0.2-0.2,0.4-0.3,0.7-0.3h2.6c0.3,0,0.5,0.1,0.7,0.3c0.2,0.2,0.3,0.4,0.3,0.7v6.9h6.9c0.2,0,0.5,0.1,0.6,0.3
				c0.2,0.2,0.3,0.4,0.3,0.7v2.4c0,0.2-0.1,0.5-0.3,0.6c-0.2,0.2-0.4,0.3-0.6,0.3h-6.9v7.1c0,0.3-0.1,0.5-0.3,0.7
				c-0.2,0.2-0.4,0.3-0.7,0.3H93.8z"/>
			<path d="M117,287c-0.3,0-0.5-0.1-0.7-0.3c-0.2-0.2-0.3-0.4-0.3-0.7v-18.7l-5.4,4.2c-0.2,0.2-0.5,0.2-0.7,0.2
				c-0.2,0-0.4-0.2-0.6-0.4l-1.9-2.4c-0.2-0.2-0.2-0.5-0.2-0.7s0.2-0.5,0.4-0.6l8.6-6.6c0.2-0.1,0.3-0.2,0.4-0.2
				c0.1,0,0.3-0.1,0.5-0.1h4c0.2,0,0.5,0.1,0.6,0.3c0.2,0.2,0.3,0.4,0.3,0.7V286c0,0.3-0.1,0.5-0.3,0.7c-0.2,0.2-0.4,0.3-0.6,0.3
				H117z"/>
		</g>
	</g>
	<path class="st3" d="M418.4,199.6h-88.6c-7.6,0-13.8-6.2-13.8-13.8v-30.4c0-7.6,6.2-13.8,13.8-13.8h88.6c7.6,0,13.8,6.2,13.8,13.8
		v30.4C432.2,193.4,426,199.6,418.4,199.6z"/>
	<path class="st3" d="M418.4,268h-88.6c-7.6,0-13.8-6.2-13.8-13.8v-30.4c0-7.6,6.2-13.8,13.8-13.8h88.6c7.6,0,13.8,6.2,13.8,13.8
		v30.4C432.2,261.7,426,268,418.4,268z"/>
	<path class="st3" d="M418.4,336.3h-88.6c-7.6,0-13.8-6.2-13.8-13.8V292c0-7.6,6.2-13.8,13.8-13.8h88.6c7.6,0,13.8,6.2,13.8,13.8
		v30.4C432.2,330.1,426,336.3,418.4,336.3z"/>
	<g class="st5">
		<g>
			<path d="M359.1,182.1c-0.3,0-0.5-0.1-0.7-0.3s-0.3-0.4-0.3-0.7V174h-6.9c-0.3,0-0.5-0.1-0.7-0.3c-0.2-0.2-0.3-0.4-0.3-0.6v-2.4
				c0-0.3,0.1-0.5,0.3-0.7c0.2-0.2,0.4-0.3,0.7-0.3h6.9V163c0-0.3,0.1-0.5,0.3-0.7c0.2-0.2,0.4-0.3,0.7-0.3h2.6
				c0.3,0,0.5,0.1,0.7,0.3c0.2,0.2,0.3,0.4,0.3,0.7v6.9h6.9c0.2,0,0.5,0.1,0.6,0.3c0.2,0.2,0.3,0.4,0.3,0.7v2.4
				c0,0.3-0.1,0.5-0.3,0.6s-0.4,0.3-0.6,0.3h-6.9v7.1c0,0.3-0.1,0.5-0.3,0.7c-0.2,0.2-0.4,0.3-0.7,0.3H359.1z"/>
			<path d="M374.5,183.3c-0.3,0-0.5-0.1-0.7-0.3c-0.2-0.2-0.3-0.4-0.3-0.7v-2.3c0-0.2,0.1-0.5,0.2-0.8c0.1-0.3,0.4-0.7,0.8-1l5-4.9
				c1.8-1.4,3.3-2.6,4.5-3.6c1.1-1,2-1.9,2.5-2.7c0.5-0.8,0.8-1.6,0.8-2.3c0-1-0.3-1.8-0.8-2.4c-0.5-0.6-1.4-1-2.6-1
				c-0.8,0-1.5,0.2-2,0.5c-0.5,0.3-1,0.8-1.3,1.3c-0.3,0.6-0.5,1.2-0.6,1.8c-0.1,0.3-0.2,0.6-0.5,0.7c-0.2,0.1-0.5,0.2-0.7,0.2h-4
				c-0.3,0-0.5-0.1-0.6-0.2c-0.1-0.2-0.2-0.3-0.2-0.5c0-1.2,0.3-2.2,0.7-3.3c0.5-1,1.1-1.9,2-2.7c0.9-0.8,1.9-1.4,3.1-1.9
				c1.2-0.5,2.6-0.7,4.1-0.7c2.1,0,3.9,0.3,5.3,1c1.4,0.7,2.5,1.6,3.2,2.8c0.7,1.2,1.1,2.6,1.1,4.2c0,1.2-0.2,2.3-0.7,3.3
				c-0.5,1-1.2,2-2.1,2.9c-0.9,0.9-2,1.9-3.3,2.9l-4.4,4.4H393c0.3,0,0.5,0.1,0.7,0.3c0.2,0.2,0.3,0.4,0.3,0.7v3.2
				c0,0.3-0.1,0.5-0.3,0.7c-0.2,0.2-0.4,0.3-0.7,0.3H374.5z"/>
		</g>
	</g>
	<g class="st5">
		<g>
			<path d="M359.1,250.4c-0.3,0-0.5-0.1-0.7-0.3s-0.3-0.4-0.3-0.7v-7.1h-6.9c-0.3,0-0.5-0.1-0.7-0.3c-0.2-0.2-0.3-0.4-0.3-0.6v-2.4
				c0-0.3,0.1-0.5,0.3-0.7c0.2-0.2,0.4-0.3,0.7-0.3h6.9v-6.9c0-0.3,0.1-0.5,0.3-0.7c0.2-0.2,0.4-0.3,0.7-0.3h2.6
				c0.3,0,0.5,0.1,0.7,0.3c0.2,0.2,0.3,0.4,0.3,0.7v6.9h6.9c0.2,0,0.5,0.1,0.6,0.3c0.2,0.2,0.3,0.4,0.3,0.7v2.4
				c0,0.2-0.1,0.5-0.3,0.6c-0.2,0.2-0.4,0.3-0.6,0.3h-6.9v7.1c0,0.3-0.1,0.5-0.3,0.7c-0.2,0.2-0.4,0.3-0.7,0.3H359.1z"/>
			<path d="M374.5,251.7c-0.3,0-0.5-0.1-0.7-0.3c-0.2-0.2-0.3-0.4-0.3-0.7v-2.3c0-0.2,0.1-0.5,0.2-0.8c0.1-0.3,0.4-0.7,0.8-1l5-4.9
				c1.8-1.4,3.3-2.6,4.5-3.6c1.1-1,2-1.9,2.5-2.7c0.5-0.8,0.8-1.6,0.8-2.3c0-1-0.3-1.8-0.8-2.4c-0.5-0.6-1.4-1-2.6-1
				c-0.8,0-1.5,0.2-2,0.5c-0.5,0.3-1,0.8-1.3,1.3c-0.3,0.6-0.5,1.2-0.6,1.8c-0.1,0.3-0.2,0.6-0.5,0.7c-0.2,0.1-0.5,0.2-0.7,0.2h-4
				c-0.3,0-0.5-0.1-0.6-0.2c-0.1-0.2-0.2-0.3-0.2-0.5c0-1.2,0.3-2.2,0.7-3.3c0.5-1,1.1-1.9,2-2.7c0.9-0.8,1.9-1.4,3.1-1.9
				c1.2-0.5,2.6-0.7,4.1-0.7c2.1,0,3.9,0.3,5.3,1c1.4,0.7,2.5,1.6,3.2,2.8c0.7,1.2,1.1,2.6,1.1,4.2c0,1.2-0.2,2.3-0.7,3.3
				c-0.5,1-1.2,2-2.1,2.9c-0.9,0.9-2,1.9-3.3,2.9l-4.4,4.4H393c0.3,0,0.5,0.1,0.7,0.3c0.2,0.2,0.3,0.4,0.3,0.7v3.2
				c0,0.3-0.1,0.5-0.3,0.7c-0.2,0.2-0.4,0.3-0.7,0.3H374.5z"/>
		</g>
	</g>
	<g class="st5">
		<g>
			<path d="M359.1,318.8c-0.3,0-0.5-0.1-0.7-0.3s-0.3-0.4-0.3-0.7v-7.1h-6.9c-0.3,0-0.5-0.1-0.7-0.3c-0.2-0.2-0.3-0.4-0.3-0.6v-2.4
				c0-0.3,0.1-0.5,0.3-0.7c0.2-0.2,0.4-0.3,0.7-0.3h6.9v-6.9c0-0.3,0.1-0.5,0.3-0.7c0.2-0.2,0.4-0.3,0.7-0.3h2.6
				c0.3,0,0.5,0.1,0.7,0.3c0.2,0.2,0.3,0.4,0.3,0.7v6.9h6.9c0.2,0,0.5,0.1,0.6,0.3s0.3,0.4,0.3,0.7v2.4c0,0.2-0.1,0.5-0.3,0.6
				c-0.2,0.2-0.4,0.3-0.6,0.3h-6.9v7.1c0,0.3-0.1,0.5-0.3,0.7c-0.2,0.2-0.4,0.3-0.7,0.3H359.1z"/>
			<path d="M374.5,320.1c-0.3,0-0.5-0.1-0.7-0.3c-0.2-0.2-0.3-0.4-0.3-0.7v-2.3c0-0.2,0.1-0.5,0.2-0.8c0.1-0.3,0.4-0.7,0.8-1l5-4.9
				c1.8-1.4,3.3-2.6,4.5-3.6c1.1-1,2-1.9,2.5-2.7c0.5-0.8,0.8-1.6,0.8-2.3c0-1-0.3-1.8-0.8-2.4c-0.5-0.6-1.4-1-2.6-1
				c-0.8,0-1.5,0.2-2,0.5c-0.5,0.3-1,0.8-1.3,1.3c-0.3,0.6-0.5,1.2-0.6,1.8c-0.1,0.3-0.2,0.6-0.5,0.7c-0.2,0.1-0.5,0.2-0.7,0.2h-4
				c-0.3,0-0.5-0.1-0.6-0.2c-0.1-0.2-0.2-0.3-0.2-0.5c0-1.2,0.3-2.2,0.7-3.3c0.5-1,1.1-1.9,2-2.7c0.9-0.8,1.9-1.4,3.1-1.9
				c1.2-0.5,2.6-0.7,4.1-0.7c2.1,0,3.9,0.3,5.3,1c1.4,0.7,2.5,1.6,3.2,2.8c0.7,1.2,1.1,2.6,1.1,4.2c0,1.2-0.2,2.3-0.7,3.3
				s-1.2,2-2.1,2.9c-0.9,0.9-2,1.9-3.3,2.9l-4.4,4.4H393c0.3,0,0.5,0.1,0.7,0.3c0.2,0.2,0.3,0.4,0.3,0.7v3.2c0,0.3-0.1,0.5-0.3,0.7
				c-0.2,0.2-0.4,0.3-0.7,0.3H374.5z"/>
		</g>
	</g>
	<g class="st5">
		<g>
			<line class="st8" x1="195.3" y1="240" x2="256" y2="240"/>
			<g>
				<polygon class="st9" points="250.2,259.9 284.7,240 250.2,220.1 				"/>
			</g>
		</g>
	</g>
</g>
<g id="Layer_6">
	<path class="st11" d="M418.6,202.3H330c-7.6,0-13.9-6.2-13.9-13.9V158c0-7.6,6.2-13.9,13.9-13.9h88.7c7.6,0,13.9,6.2,13.9,13.9
		v30.5C432.5,196.1,426.3,202.3,418.6,202.3z"/>
	<path class="st17" d="M418.6,136.7H330c-7.6,0-13.9-6.2-13.9-13.9V92.4c0-7.6,6.2-13.9,13.9-13.9h88.7c7.6,0,13.9,6.2,13.9,13.9
		v30.5C432.5,130.5,426.3,136.7,418.6,136.7z"/>
	<path class="st6" d="M418.6,267.9H330c-7.6,0-13.9-6.2-13.9-13.9v-30.5c0-7.6,6.2-13.9,13.9-13.9h88.7c7.6,0,13.9,6.2,13.9,13.9
		V254C432.5,261.6,426.3,267.9,418.6,267.9z"/>
	<path class="st13" d="M418.6,333.4H330c-7.6,0-13.9-6.2-13.9-13.9v-30.5c0-7.6,6.2-13.9,13.9-13.9h88.7c7.6,0,13.9,6.2,13.9,13.9
		v30.5C432.5,327.2,426.3,333.4,418.6,333.4z"/>
	<path class="st18" d="M418.6,399H330c-7.6,0-13.9-6.2-13.9-13.9v-30.5c0-7.6,6.2-13.9,13.9-13.9h88.7c7.6,0,13.9,6.2,13.9,13.9
		v30.5C432.5,392.8,426.3,399,418.6,399z"/>
	<path class="st17" d="M150,172.5H61.4c-7.6,0-13.9-6.2-13.9-13.9v-30.5c0-7.6,6.2-13.9,13.9-13.9H150c7.6,0,13.9,6.2,13.9,13.9
		v30.5C163.9,166.3,157.7,172.5,150,172.5z"/>
	<path class="st6" d="M150,267.9H61.4c-7.6,0-13.9-6.2-13.9-13.9v-30.5c0-7.6,6.2-13.9,13.9-13.9H150c7.6,0,13.9,6.2,13.9,13.9V254
		C163.9,261.6,157.7,267.9,150,267.9z"/>
	<path class="st18" d="M150,363.2H61.4c-7.6,0-13.9-6.2-13.9-13.9v-30.5c0-7.6,6.2-13.9,13.9-13.9H150c7.6,0,13.9,6.2,13.9,13.9
		v30.5C163.9,357,157.7,363.2,150,363.2z"/>
	<g>
		<g>
			<line class="st8" x1="195.2" y1="239.9" x2="256.1" y2="239.9"/>
			<g>
				<polygon class="st9" points="250.2,259.8 284.8,239.9 250.2,219.9 				"/>
			</g>
		</g>
	</g>
</g>
<g id="Layer_7" class="st1">
	<g class="st19">
		<g>
			<line class="st20" x1="240" y1="175" x2="240" y2="233.2"/>
			<g>
				<polygon class="st9" points="190.1,218.6 240,305 289.9,218.6 				"/>
			</g>
		</g>
	</g>
	<g class="st5">
		<path class="st11" d="M339.3,159H141.2c-17,0-31-13.9-31-31V60c0-17,13.9-31,31-31h198.1c17,0,31,13.9,31,31V128
			C370.3,145.1,356.3,159,339.3,159z"/>
		<rect x="102.1" y="29" class="st14" width="277.8" height="92.4"/>
		<g>
			<g>
				<path d="M199.7,121.2c-0.5,0-1-0.2-1.3-0.5c-0.3-0.3-0.5-0.8-0.5-1.3v-4.3c0-0.4,0.1-0.9,0.3-1.5c0.2-0.6,0.7-1.3,1.5-1.9
					l9.5-9.4c3.5-2.7,6.3-5,8.5-6.8c2.2-1.9,3.8-3.6,4.9-5.1c1.1-1.5,1.6-3,1.6-4.5c0-1.9-0.5-3.4-1.5-4.6c-1-1.2-2.7-1.8-5-1.8
					c-1.5,0-2.8,0.3-3.9,1c-1,0.6-1.8,1.5-2.4,2.6c-0.6,1.1-1,2.2-1.2,3.5c-0.1,0.6-0.4,1.1-0.9,1.3c-0.5,0.2-0.9,0.4-1.4,0.4h-7.6
					c-0.5,0-0.9-0.2-1.2-0.5c-0.3-0.3-0.4-0.7-0.4-1c0-2.2,0.5-4.3,1.4-6.3c0.9-2,2.1-3.7,3.8-5.3c1.6-1.5,3.6-2.7,5.9-3.6
					c2.3-0.9,4.9-1.3,7.8-1.3c4,0,7.4,0.7,10.2,2c2.7,1.3,4.8,3.1,6.2,5.4c1.4,2.3,2.1,5,2.1,8c0,2.3-0.5,4.4-1.4,6.4
					c-0.9,2-2.3,3.9-4.1,5.7c-1.8,1.8-3.9,3.7-6.3,5.6l-8.5,8.5h19.6c0.5,0,1,0.2,1.3,0.5c0.3,0.3,0.5,0.8,0.5,1.3v6.1
					c0,0.5-0.2,1-0.5,1.3c-0.3,0.3-0.8,0.5-1.3,0.5H199.7z"/>
				<path d="M253.3,121.2c-0.4,0-0.8-0.2-1.1-0.5c-0.3-0.3-0.4-0.7-0.4-1.1c0-0.2,0-0.4,0.1-0.6c0.1-0.1,0.1-0.3,0.2-0.4l10.4-14.3
					c-0.9,0.2-1.7,0.3-2.6,0.2c-2.3-0.1-4.5-0.6-6.6-1.4c-2.1-0.8-3.9-2-5.5-3.5c-1.6-1.5-2.9-3.2-3.8-5.3s-1.4-4.2-1.4-6.7
					c0-2.2,0.4-4.4,1.3-6.5c0.8-2.1,2.1-4,3.8-5.7c1.7-1.7,3.8-3,6.3-4c2.5-1,5.4-1.5,8.7-1.5c3.3,0,6.2,0.5,8.7,1.4
					c2.5,0.9,4.6,2.2,6.4,3.8c1.7,1.6,3,3.5,3.9,5.5c0.9,2.1,1.3,4.3,1.3,6.7c0,2.1-0.4,4.1-1.1,5.9c-0.7,1.8-1.6,3.5-2.7,5.1
					s-2.1,3.1-3.2,4.6L264,119.8c-0.2,0.2-0.5,0.5-0.9,0.9c-0.4,0.4-0.9,0.5-1.7,0.5H253.3z M262.8,96.2c1.6,0,3-0.3,4.3-1
					c1.3-0.7,2.3-1.6,3.1-2.9c0.7-1.2,1.1-2.7,1.1-4.5c0-1.8-0.4-3.3-1.1-4.5c-0.7-1.2-1.8-2.2-3.1-2.9c-1.3-0.7-2.7-1-4.3-1
					c-1.5,0-3,0.3-4.2,1c-1.3,0.7-2.3,1.6-3.1,2.9c-0.7,1.2-1.1,2.8-1.1,4.5c0,1.7,0.4,3.2,1.1,4.5c0.7,1.2,1.8,2.2,3.1,2.9
					C259.8,95.9,261.2,96.2,262.8,96.2z"/>
			</g>
		</g>
	</g>
	<g class="st5">
		<path class="st6" d="M339.3,449H141.2c-17,0-31-13.9-31-31V350c0-17,13.9-31,31-31h198.1c17,0,31,13.9,31,31V418
			C370.3,435.1,356.3,449,339.3,449z"/>
		<rect x="102.1" y="319" class="st14" width="277.8" height="92.4"/>
		<g>
			<g>
				<path d="M215.9,412c-3.6,0-6.6-0.4-9.1-1.3c-2.5-0.9-4.6-2-6.3-3.3c-1.6-1.3-2.9-2.8-3.7-4.4c-0.8-1.6-1.2-3.2-1.3-4.6
					c0-0.4,0.1-0.8,0.4-1.1c0.3-0.3,0.6-0.4,1.1-0.4h7.9c0.5,0,1,0.1,1.3,0.3c0.3,0.2,0.6,0.6,0.9,1.1c0.4,1.1,1,2,1.9,2.7
					c0.9,0.7,1.9,1.1,3.1,1.4c1.2,0.3,2.4,0.4,3.8,0.4c2.7,0,4.8-0.6,6.3-1.9c1.5-1.2,2.3-3,2.3-5.3c0-2.3-0.7-4-2.2-5
					s-3.5-1.5-6.1-1.5h-7.7c-0.5,0-0.9-0.2-1.2-0.5c-0.3-0.3-0.5-0.7-0.5-1.2v-3.5c0-0.6,0.1-1.1,0.3-1.4c0.2-0.4,0.4-0.7,0.7-0.9
					l12.4-11.4h-20.3c-0.5,0-1-0.2-1.3-0.5c-0.3-0.3-0.5-0.7-0.5-1.2v-5.8c0-0.5,0.2-1,0.5-1.3c0.3-0.3,0.8-0.5,1.3-0.5h32
					c0.5,0,1,0.2,1.3,0.5c0.3,0.3,0.5,0.8,0.5,1.3v5.2c0,0.5-0.1,1-0.3,1.3c-0.2,0.4-0.4,0.6-0.7,0.8L221,381.6l0.7,0.1
					c2.8,0.3,5.4,1,7.6,2.1c2.2,1.1,3.9,2.7,5.2,4.7c1.3,2,1.9,4.6,1.9,7.7c0,3.3-0.9,6.1-2.7,8.4c-1.8,2.4-4.2,4.2-7.3,5.4
					C223.4,411.3,219.9,412,215.9,412z"/>
				<path d="M263.4,412c-3.5,0-6.4-0.5-8.9-1.5c-2.5-1-4.5-2.4-6.1-4.1c-1.6-1.8-2.8-3.8-3.6-6.1s-1.3-4.8-1.4-7.5
					c0-1.3-0.1-2.7-0.1-4.4c0-1.6,0-3.2,0-4.9c0-1.6,0.1-3.1,0.1-4.5c0.1-2.6,0.6-5.1,1.4-7.4s2.1-4.3,3.7-6
					c1.6-1.7,3.7-3.1,6.2-4.1c2.5-1,5.4-1.5,8.7-1.5c3.4,0,6.3,0.5,8.7,1.5c2.4,1,4.5,2.3,6.1,4.1c1.6,1.7,2.9,3.7,3.7,6
					s1.3,4.8,1.5,7.4c0,1.3,0.1,2.8,0.1,4.5c0,1.6,0,3.3,0,4.9c0,1.6-0.1,3.1-0.1,4.4c-0.1,2.6-0.6,5.1-1.4,7.5
					c-0.8,2.3-2,4.4-3.6,6.1c-1.6,1.8-3.6,3.1-6.1,4.1C269.8,411.5,266.8,412,263.4,412z M263.4,402.6c2.8,0,4.8-0.9,6.1-2.7
					c1.3-1.8,2-4.3,2.1-7.4c0-1.4,0.1-2.8,0.1-4.3c0-1.5,0-3,0-4.5c0-1.5-0.1-2.9-0.1-4.2c-0.1-3-0.8-5.4-2.1-7.3s-3.3-2.8-6.1-2.9
					c-2.8,0-4.9,1-6.2,2.9c-1.3,1.9-2,4.3-2.1,7.3c0,1.3-0.1,2.7-0.1,4.2c0,1.5,0,3,0,4.5c0,1.5,0.1,2.9,0.1,4.3
					c0.1,3.1,0.8,5.6,2.1,7.4C258.6,401.7,260.7,402.6,263.4,402.6z"/>
			</g>
		</g>
	</g>
	<g class="st5">
		<g>
			<path class="st9" d="M121.9,261.1c-0.5,0-1-0.2-1.3-0.5c-0.3-0.3-0.5-0.8-0.5-1.3v-46.8c0-0.5,0.2-1,0.5-1.3
				c0.3-0.3,0.8-0.5,1.3-0.5H154c0.5,0,1,0.2,1.3,0.5c0.3,0.3,0.5,0.8,0.5,1.3v6.1c0,0.5-0.2,1-0.5,1.3c-0.3,0.3-0.8,0.5-1.3,0.5
				h-22.7v12.2h21.2c0.5,0,1,0.2,1.3,0.5c0.3,0.3,0.5,0.8,0.5,1.3v6.1c0,0.5-0.2,0.9-0.5,1.2c-0.3,0.3-0.8,0.5-1.3,0.5h-21.2v17.1
				c0,0.5-0.2,1-0.5,1.3c-0.3,0.3-0.8,0.5-1.3,0.5H121.9z"/>
			<path class="st9" d="M174.2,261.8c-2.5,0-4.8-0.5-6.8-1.5s-3.6-2.3-4.8-4c-1.2-1.7-1.8-3.6-1.8-5.6c0-3.4,1.4-6.1,4.1-8.1
				c2.8-2,6.4-3.3,10.9-4l9.4-1.4V236c0-1.9-0.4-3.3-1.3-4.3c-0.9-1-2.4-1.5-4.5-1.5c-1.6,0-2.9,0.3-3.8,0.9c-1,0.6-1.7,1.4-2.2,2.4
				c-0.4,0.6-0.9,0.9-1.7,0.9h-6.8c-0.5,0-0.9-0.2-1.2-0.5c-0.3-0.3-0.4-0.7-0.4-1.1c0-0.8,0.3-1.8,0.9-2.9c0.6-1.1,1.6-2.2,2.9-3.3
				c1.3-1.1,3-2,5-2.7c2-0.7,4.5-1.1,7.4-1.1c3,0,5.6,0.4,7.8,1.1c2.2,0.7,3.9,1.7,5.2,3c1.3,1.3,2.3,2.8,2.9,4.5
				c0.6,1.7,0.9,3.5,0.9,5.5v22.2c0,0.5-0.2,1-0.5,1.3c-0.3,0.3-0.8,0.5-1.3,0.5h-7.1c-0.5,0-0.9-0.2-1.2-0.5
				c-0.3-0.3-0.5-0.8-0.5-1.3v-2.7c-0.6,0.9-1.5,1.8-2.5,2.6c-1.1,0.8-2.3,1.4-3.8,1.9C177.9,261.6,176.2,261.8,174.2,261.8z
				 M177.1,254.3c1.6,0,3-0.3,4.2-1c1.2-0.7,2.2-1.7,3-3.1c0.7-1.4,1.1-3.1,1.1-5.3v-1.2l-6.7,1.1c-2.6,0.4-4.5,1.1-5.7,1.9
				c-1.2,0.9-1.8,1.9-1.8,3.2c0,0.9,0.3,1.7,0.8,2.4c0.6,0.7,1.3,1.2,2.2,1.5C175.1,254.2,176.1,254.3,177.1,254.3z"/>
			<path class="st9" d="M219.7,261.8c-3,0-5.5-0.3-7.7-1c-2.1-0.7-3.9-1.5-5.2-2.6c-1.3-1-2.3-2-3-3.1s-1-1.9-1-2.6
				c0-0.5,0.1-1,0.5-1.3c0.4-0.3,0.8-0.5,1.2-0.5h7c0.1,0,0.3,0,0.4,0.1c0.1,0,0.3,0.2,0.4,0.4c0.6,0.4,1.3,0.9,1.9,1.5
				c0.7,0.6,1.5,1,2.3,1.4c0.9,0.4,2,0.6,3.3,0.6c1.6,0,2.9-0.3,4-1c1.1-0.6,1.7-1.6,1.7-2.8c0-0.9-0.3-1.6-0.8-2.2
				s-1.5-1.1-2.8-1.6c-1.4-0.5-3.5-1-6.2-1.6c-2.6-0.6-4.8-1.3-6.6-2.3c-1.8-1-3.2-2.2-4.1-3.6c-0.9-1.5-1.4-3.2-1.4-5.3
				c0-1.9,0.6-3.7,1.8-5.4c1.2-1.7,2.9-3.2,5.2-4.3c2.3-1.1,5.2-1.7,8.6-1.7c2.6,0,5,0.3,6.9,1c2,0.6,3.7,1.5,5,2.4
				c1.3,1,2.4,2,3.1,3c0.7,1,1.1,1.9,1.1,2.7c0,0.5-0.1,0.9-0.4,1.2c-0.3,0.3-0.7,0.5-1.2,0.5h-6.4c-0.2,0-0.5,0-0.6-0.1
				c-0.2-0.1-0.4-0.2-0.5-0.3c-0.6-0.4-1.2-0.8-1.8-1.3c-0.6-0.5-1.3-0.9-2.1-1.3c-0.8-0.4-1.9-0.6-3.2-0.6c-1.6,0-2.8,0.3-3.6,1
				c-0.8,0.7-1.3,1.6-1.3,2.6c0,0.7,0.2,1.3,0.6,1.9s1.3,1.1,2.7,1.6c1.3,0.5,3.4,1,6.1,1.5c3.3,0.6,5.9,1.4,7.8,2.6
				c1.9,1.2,3.3,2.5,4.1,4c0.8,1.5,1.3,3.1,1.3,4.9c0,2.3-0.7,4.3-2,6c-1.3,1.8-3.3,3.1-5.9,4.1
				C226.6,261.3,223.4,261.8,219.7,261.8z"/>
			<path class="st9" d="M262,261.1c-3,0-5.5-0.5-7.6-1.5c-2.1-1-3.7-2.5-4.8-4.6c-1.1-2.1-1.6-4.7-1.6-7.8v-15.1h-5.6
				c-0.5,0-1-0.2-1.3-0.5c-0.3-0.3-0.5-0.8-0.5-1.3v-4.9c0-0.5,0.2-1,0.5-1.3c0.3-0.3,0.8-0.5,1.3-0.5h5.6v-11.9
				c0-0.5,0.2-1,0.5-1.3c0.4-0.3,0.8-0.5,1.3-0.5h7.1c0.5,0,1,0.2,1.3,0.5c0.3,0.3,0.5,0.8,0.5,1.3v11.9h9c0.5,0,0.9,0.2,1.2,0.5
				c0.3,0.3,0.5,0.8,0.5,1.3v4.9c0,0.5-0.2,1-0.5,1.3c-0.3,0.3-0.7,0.5-1.2,0.5h-9v14.3c0,1.8,0.3,3.3,1,4.3c0.6,1,1.8,1.5,3.4,1.5
				h5.3c0.5,0,0.9,0.2,1.2,0.5c0.3,0.3,0.5,0.7,0.5,1.2v5.3c0,0.5-0.2,1-0.5,1.3c-0.3,0.3-0.7,0.5-1.2,0.5H262z"/>
			<path class="st9" d="M292.9,261.8c-5.5,0-9.9-1.5-13.1-4.6c-3.2-3.1-5-7.5-5.1-13.4c0-0.4,0-0.9,0-1.5c0-0.6,0-1.2,0-1.5
				c0.2-3.7,1-6.9,2.5-9.5c1.5-2.7,3.6-4.7,6.3-6.1c2.7-1.4,5.8-2.1,9.4-2.1c4,0,7.4,0.8,10.1,2.5c2.7,1.7,4.8,3.9,6.1,6.8
				c1.4,2.9,2.1,6.1,2.1,9.8v1.7c0,0.5-0.2,0.9-0.5,1.2c-0.4,0.3-0.8,0.5-1.3,0.5h-23.5c0,0,0,0.1,0,0.3s0,0.2,0,0.3
				c0,1.5,0.3,2.9,0.9,4.2c0.6,1.3,1.3,2.3,2.4,3.1c1,0.8,2.3,1.2,3.7,1.2c1.2,0,2.2-0.2,3-0.5c0.8-0.3,1.4-0.7,1.9-1.2
				c0.5-0.5,0.9-0.9,1.1-1.2c0.4-0.5,0.8-0.8,1-0.9c0.3-0.1,0.7-0.2,1.3-0.2h7.5c0.5,0,0.9,0.1,1.2,0.4c0.3,0.3,0.4,0.6,0.4,1.1
				c0,0.8-0.4,1.7-1.2,2.8c-0.7,1.1-1.8,2.2-3.3,3.3c-1.4,1.1-3.2,2-5.4,2.7C298.2,261.5,295.7,261.8,292.9,261.8z M285.8,238.8
				h14.1v-0.1c0-1.7-0.3-3.2-0.8-4.5c-0.6-1.3-1.4-2.3-2.4-3c-1.1-0.7-2.3-1.1-3.8-1.1c-1.5,0-2.8,0.4-3.8,1.1
				c-1.1,0.7-1.9,1.7-2.4,3c-0.6,1.3-0.8,2.8-0.8,4.5V238.8z"/>
			<path class="st9" d="M320.1,261.1c-0.5,0-0.9-0.2-1.2-0.5c-0.3-0.3-0.5-0.8-0.5-1.3v-33.8c0-0.5,0.2-0.9,0.5-1.3
				c0.3-0.4,0.7-0.5,1.2-0.5h7.1c0.5,0,0.9,0.2,1.3,0.5s0.5,0.8,0.5,1.3v2.9c1.2-1.5,2.7-2.6,4.4-3.5c1.8-0.8,3.8-1.2,6.1-1.2h3.1
				c0.5,0,0.9,0.2,1.2,0.5c0.3,0.3,0.5,0.8,0.5,1.3v6.2c0,0.5-0.2,1-0.5,1.3c-0.3,0.3-0.7,0.5-1.2,0.5h-6.3c-2.1,0-3.8,0.6-5,1.8
				c-1.2,1.2-1.8,2.8-1.8,5v19.1c0,0.5-0.2,1-0.5,1.3c-0.3,0.3-0.8,0.5-1.3,0.5H320.1z"/>
			<path class="st9" d="M351.2,261.1c-0.5,0-0.9-0.2-1.2-0.5c-0.3-0.3-0.5-0.8-0.5-1.3v-7.7c0-0.5,0.2-1,0.5-1.3
				c0.3-0.3,0.7-0.5,1.2-0.5h7.8c0.5,0,1,0.2,1.3,0.5c0.3,0.3,0.5,0.8,0.5,1.3v7.7c0,0.5-0.2,1-0.5,1.3c-0.3,0.3-0.8,0.5-1.3,0.5
				H351.2z M351.7,246.2c-0.5,0-1-0.2-1.3-0.5c-0.3-0.3-0.5-0.8-0.5-1.3v-31.9c0-0.5,0.2-1,0.5-1.3c0.3-0.3,0.8-0.5,1.3-0.5h7
				c0.5,0,1,0.2,1.3,0.5c0.3,0.3,0.5,0.8,0.5,1.3v31.9c0,0.5-0.2,1-0.5,1.3c-0.3,0.3-0.8,0.5-1.3,0.5H351.7z"/>
		</g>
	</g>
</g>
<g id="Layer_4" class="st1">
	<g class="st5">
		<g>
			<defs>
				<rect id="SVGID_00000013878160027554783870000008571799077623780280_" x="-16" y="-16" width="512" height="512"/>
			</defs>
			<clipPath id="SVGID_00000121240736016213880040000012449359141344196013_">
				<use xlink:href="#SVGID_00000013878160027554783870000008571799077623780280_"  style="overflow:visible;"/>
			</clipPath>
			<path style="clip-path:url(#SVGID_00000121240736016213880040000012449359141344196013_);fill:#38BDF8;" d="M315,290H165
				c-13.8,0-25-11.2-25-25v-50c0-13.8,11.2-25,25-25h150c13.8,0,25,11.2,25,25v50C340,278.8,328.8,290,315,290z"/>
		</g>
		<g>
			<defs>
				<rect id="SVGID_00000089544719133716395900000010804065379223624879_" x="-16" y="-16" width="512" height="512"/>
			</defs>
			<clipPath id="SVGID_00000077284320399332936990000006229859808395922833_">
				<use xlink:href="#SVGID_00000089544719133716395900000010804065379223624879_"  style="overflow:visible;"/>
			</clipPath>
			<path style="clip-path:url(#SVGID_00000077284320399332936990000006229859808395922833_);fill:#3ADD71;" d="M315,170H165
				c-13.8,0-25-11.2-25-25V95c0-13.8,11.2-25,25-25h150c13.8,0,25,11.2,25,25v50C340,158.8,328.8,170,315,170z"/>
		</g>
		<g>
			<defs>
				<rect id="SVGID_00000066478872589253373440000008587138085941120917_" x="-16" y="-16" width="512" height="512"/>
			</defs>
			<clipPath id="SVGID_00000002383090639835213410000000339625688795434401_">
				<use xlink:href="#SVGID_00000066478872589253373440000008587138085941120917_"  style="overflow:visible;"/>
			</clipPath>
			<path style="clip-path:url(#SVGID_00000002383090639835213410000000339625688795434401_);fill:#F87171;" d="M315,530H165
				c-13.8,0-25-11.2-25-25v-50c0-13.8,11.2-25,25-25h150c13.8,0,25,11.2,25,25v50C340,518.8,328.8,530,315,530z"/>
		</g>
		<g>
			<defs>
				<rect id="SVGID_00000080884695294197251250000002886993342432803474_" x="-16" y="-16" width="512" height="512"/>
			</defs>
			<clipPath id="SVGID_00000167393766820110381420000015632941824087889298_">
				<use xlink:href="#SVGID_00000080884695294197251250000002886993342432803474_"  style="overflow:visible;"/>
			</clipPath>
			<path style="clip-path:url(#SVGID_00000167393766820110381420000015632941824087889298_);fill:#BA7DF9;" d="M315,410H165
				c-13.8,0-25-11.2-25-25v-50c0-13.8,11.2-25,25-25h150c13.8,0,25,11.2,25,25v50C340,398.8,328.8,410,315,410z"/>
		</g>
		<g>
			<defs>
				<rect id="SVGID_00000057115211886383454670000001661121443763086001_" x="-16" y="-16" width="512" height="512"/>
			</defs>
			<clipPath id="SVGID_00000011734874642817183240000010767753629858167691_">
				<use xlink:href="#SVGID_00000057115211886383454670000001661121443763086001_"  style="overflow:visible;"/>
			</clipPath>
			<path style="clip-path:url(#SVGID_00000011734874642817183240000010767753629858167691_);fill:#FBBF24;" d="M315,50H165
				c-13.8,0-25-11.2-25-25v-50c0-13.8,11.2-25,25-25h150c13.8,0,25,11.2,25,25v50C340,38.8,328.8,50,315,50z"/>
		</g>
	</g>
</g>
</svg>
